M48
; DRILL file {KiCad 9.0.5} date 2025-10-23T21:27:13-0500
; FORMAT={-:-/ absolute / metric / decimal}
; #@! TF.CreationDate,2025-10-23T21:27:13-05:00
; #@! TF.GenerationSoftware,Kicad,Pcbnew,9.0.5
; #@! TF.FileFunction,Plated,1,2,PTH
FMAT,2
METRIC
; #@! TA.AperFunction,Plated,PTH,ViaDrill
T1C0.300
; #@! TA.AperFunction,Plated,PTH,ComponentDrill
T2C0.750
; #@! TA.AperFunction,Plated,PTH,ComponentDrill
T3C0.800
; #@! TA.AperFunction,Plated,PTH,ComponentDrill
T4C0.900
; #@! TA.AperFunction,Plated,PTH,ComponentDrill
T5C1.000
; #@! TA.AperFunction,Plated,PTH,ComponentDrill
T6C1.100
; #@! TA.AperFunction,Plated,PTH,ComponentDrill
T7C1.300
; #@! TA.AperFunction,Plated,PTH,ComponentDrill
T8C3.200
%
G90
G05
T1
X106.387Y-89.388
X113.451Y-83.537
X127.395Y-94.387
X142.876Y-104.555
X143.261Y-100.639
X143.417Y-91.244
X146.779Y-93.218
X149.055Y-92.807
X153.015Y-91.292
X161.217Y-104.012
T2
X156.46Y-109.5
X157.73Y-109.5
X159.0Y-109.5
T3
X108.64Y-59.31
X108.64Y-65.86
X108.64Y-72.41
X108.64Y-78.96
X108.64Y-85.51
X110.56Y-109.19
X111.14Y-59.31
X111.14Y-65.86
X111.14Y-72.41
X111.14Y-78.96
X111.14Y-85.51
X115.28Y-59.31
X115.28Y-65.86
X115.28Y-72.41
X115.28Y-78.96
X115.28Y-85.51
X115.44Y-109.19
X117.78Y-59.31
X117.78Y-65.86
X117.78Y-72.41
X117.78Y-78.96
X117.78Y-85.51
X121.38Y-86.21
X121.38Y-88.75
X121.38Y-91.29
X121.38Y-93.83
X121.38Y-96.37
X121.38Y-98.91
X121.38Y-101.45
X121.38Y-103.99
X129.0Y-86.21
X129.0Y-88.75
X129.0Y-91.29
X129.0Y-93.83
X129.0Y-96.37
X129.0Y-98.91
X129.0Y-101.45
X129.0Y-103.99
X154.28Y-58.06
X154.28Y-62.11
X154.28Y-66.16
X154.28Y-70.21
X154.28Y-74.26
X154.28Y-78.31
X161.9Y-58.06
X161.9Y-62.11
X161.9Y-66.16
X161.9Y-70.21
X161.9Y-74.26
X161.9Y-78.31
T4
X145.59Y-87.9
X145.59Y-95.37
X148.13Y-87.9
X148.13Y-95.37
T5
X130.845Y-79.84
X132.23Y-77.0
X133.615Y-79.84
X135.0Y-77.0
X136.385Y-79.84
X137.77Y-77.0
X139.155Y-79.84
X140.54Y-77.0
X141.925Y-79.84
X156.77Y-101.4
X156.77Y-103.94
T6
X108.4Y-99.46
X108.4Y-103.71
X108.55Y-90.81
X108.55Y-95.31
X115.05Y-90.81
X115.05Y-95.31
X116.02Y-99.46
X116.02Y-103.71
X153.84Y-88.09
X153.84Y-94.04
X156.38Y-88.09
X156.38Y-94.04
X158.92Y-88.09
X158.92Y-94.04
T7
X134.6Y-89.19
X134.6Y-99.305
X139.6Y-89.19
X139.6Y-99.305
T8
X123.885Y-78.42
X148.885Y-78.42
M30
