%TF.GenerationSoftware,KiCad,Pcbnew,9.0.5*%
%TF.CreationDate,2025-10-23T21:22:06-05:00*%
%TF.ProjectId,detetor de sinal 12v,64657465-746f-4722-9064-652073696e61,rev?*%
%TF.SameCoordinates,Original*%
%TF.FileFunction,Legend,Top*%
%TF.FilePolarity,Positive*%
%FSLAX46Y46*%
G04 Gerber Fmt 4.6, Leading zero omitted, Abs format (unit mm)*
G04 Created by KiCad (PCBNEW 9.0.5) date 2025-10-23 21:22:06*
%MOMM*%
%LPD*%
G01*
G04 APERTURE LIST*
%ADD10C,0.150000*%
%ADD11C,0.120000*%
G04 APERTURE END LIST*
D10*
X116362933Y-55919580D02*
X116315314Y-55967200D01*
X116315314Y-55967200D02*
X116172457Y-56014819D01*
X116172457Y-56014819D02*
X116077219Y-56014819D01*
X116077219Y-56014819D02*
X115934362Y-55967200D01*
X115934362Y-55967200D02*
X115839124Y-55871961D01*
X115839124Y-55871961D02*
X115791505Y-55776723D01*
X115791505Y-55776723D02*
X115743886Y-55586247D01*
X115743886Y-55586247D02*
X115743886Y-55443390D01*
X115743886Y-55443390D02*
X115791505Y-55252914D01*
X115791505Y-55252914D02*
X115839124Y-55157676D01*
X115839124Y-55157676D02*
X115934362Y-55062438D01*
X115934362Y-55062438D02*
X116077219Y-55014819D01*
X116077219Y-55014819D02*
X116172457Y-55014819D01*
X116172457Y-55014819D02*
X116315314Y-55062438D01*
X116315314Y-55062438D02*
X116362933Y-55110057D01*
X117220076Y-55014819D02*
X117029600Y-55014819D01*
X117029600Y-55014819D02*
X116934362Y-55062438D01*
X116934362Y-55062438D02*
X116886743Y-55110057D01*
X116886743Y-55110057D02*
X116791505Y-55252914D01*
X116791505Y-55252914D02*
X116743886Y-55443390D01*
X116743886Y-55443390D02*
X116743886Y-55824342D01*
X116743886Y-55824342D02*
X116791505Y-55919580D01*
X116791505Y-55919580D02*
X116839124Y-55967200D01*
X116839124Y-55967200D02*
X116934362Y-56014819D01*
X116934362Y-56014819D02*
X117124838Y-56014819D01*
X117124838Y-56014819D02*
X117220076Y-55967200D01*
X117220076Y-55967200D02*
X117267695Y-55919580D01*
X117267695Y-55919580D02*
X117315314Y-55824342D01*
X117315314Y-55824342D02*
X117315314Y-55586247D01*
X117315314Y-55586247D02*
X117267695Y-55491009D01*
X117267695Y-55491009D02*
X117220076Y-55443390D01*
X117220076Y-55443390D02*
X117124838Y-55395771D01*
X117124838Y-55395771D02*
X116934362Y-55395771D01*
X116934362Y-55395771D02*
X116839124Y-55443390D01*
X116839124Y-55443390D02*
X116791505Y-55491009D01*
X116791505Y-55491009D02*
X116743886Y-55586247D01*
X109723133Y-82119580D02*
X109675514Y-82167200D01*
X109675514Y-82167200D02*
X109532657Y-82214819D01*
X109532657Y-82214819D02*
X109437419Y-82214819D01*
X109437419Y-82214819D02*
X109294562Y-82167200D01*
X109294562Y-82167200D02*
X109199324Y-82071961D01*
X109199324Y-82071961D02*
X109151705Y-81976723D01*
X109151705Y-81976723D02*
X109104086Y-81786247D01*
X109104086Y-81786247D02*
X109104086Y-81643390D01*
X109104086Y-81643390D02*
X109151705Y-81452914D01*
X109151705Y-81452914D02*
X109199324Y-81357676D01*
X109199324Y-81357676D02*
X109294562Y-81262438D01*
X109294562Y-81262438D02*
X109437419Y-81214819D01*
X109437419Y-81214819D02*
X109532657Y-81214819D01*
X109532657Y-81214819D02*
X109675514Y-81262438D01*
X109675514Y-81262438D02*
X109723133Y-81310057D01*
X110627895Y-81214819D02*
X110151705Y-81214819D01*
X110151705Y-81214819D02*
X110104086Y-81691009D01*
X110104086Y-81691009D02*
X110151705Y-81643390D01*
X110151705Y-81643390D02*
X110246943Y-81595771D01*
X110246943Y-81595771D02*
X110485038Y-81595771D01*
X110485038Y-81595771D02*
X110580276Y-81643390D01*
X110580276Y-81643390D02*
X110627895Y-81691009D01*
X110627895Y-81691009D02*
X110675514Y-81786247D01*
X110675514Y-81786247D02*
X110675514Y-82024342D01*
X110675514Y-82024342D02*
X110627895Y-82119580D01*
X110627895Y-82119580D02*
X110580276Y-82167200D01*
X110580276Y-82167200D02*
X110485038Y-82214819D01*
X110485038Y-82214819D02*
X110246943Y-82214819D01*
X110246943Y-82214819D02*
X110151705Y-82167200D01*
X110151705Y-82167200D02*
X110104086Y-82119580D01*
X157923333Y-56144819D02*
X157590000Y-55668628D01*
X157351905Y-56144819D02*
X157351905Y-55144819D01*
X157351905Y-55144819D02*
X157732857Y-55144819D01*
X157732857Y-55144819D02*
X157828095Y-55192438D01*
X157828095Y-55192438D02*
X157875714Y-55240057D01*
X157875714Y-55240057D02*
X157923333Y-55335295D01*
X157923333Y-55335295D02*
X157923333Y-55478152D01*
X157923333Y-55478152D02*
X157875714Y-55573390D01*
X157875714Y-55573390D02*
X157828095Y-55621009D01*
X157828095Y-55621009D02*
X157732857Y-55668628D01*
X157732857Y-55668628D02*
X157351905Y-55668628D01*
X158875714Y-56144819D02*
X158304286Y-56144819D01*
X158590000Y-56144819D02*
X158590000Y-55144819D01*
X158590000Y-55144819D02*
X158494762Y-55287676D01*
X158494762Y-55287676D02*
X158399524Y-55382914D01*
X158399524Y-55382914D02*
X158304286Y-55430533D01*
X109723133Y-75569580D02*
X109675514Y-75617200D01*
X109675514Y-75617200D02*
X109532657Y-75664819D01*
X109532657Y-75664819D02*
X109437419Y-75664819D01*
X109437419Y-75664819D02*
X109294562Y-75617200D01*
X109294562Y-75617200D02*
X109199324Y-75521961D01*
X109199324Y-75521961D02*
X109151705Y-75426723D01*
X109151705Y-75426723D02*
X109104086Y-75236247D01*
X109104086Y-75236247D02*
X109104086Y-75093390D01*
X109104086Y-75093390D02*
X109151705Y-74902914D01*
X109151705Y-74902914D02*
X109199324Y-74807676D01*
X109199324Y-74807676D02*
X109294562Y-74712438D01*
X109294562Y-74712438D02*
X109437419Y-74664819D01*
X109437419Y-74664819D02*
X109532657Y-74664819D01*
X109532657Y-74664819D02*
X109675514Y-74712438D01*
X109675514Y-74712438D02*
X109723133Y-74760057D01*
X110580276Y-74998152D02*
X110580276Y-75664819D01*
X110342181Y-74617200D02*
X110104086Y-75331485D01*
X110104086Y-75331485D02*
X110723133Y-75331485D01*
X157923333Y-60194819D02*
X157590000Y-59718628D01*
X157351905Y-60194819D02*
X157351905Y-59194819D01*
X157351905Y-59194819D02*
X157732857Y-59194819D01*
X157732857Y-59194819D02*
X157828095Y-59242438D01*
X157828095Y-59242438D02*
X157875714Y-59290057D01*
X157875714Y-59290057D02*
X157923333Y-59385295D01*
X157923333Y-59385295D02*
X157923333Y-59528152D01*
X157923333Y-59528152D02*
X157875714Y-59623390D01*
X157875714Y-59623390D02*
X157828095Y-59671009D01*
X157828095Y-59671009D02*
X157732857Y-59718628D01*
X157732857Y-59718628D02*
X157351905Y-59718628D01*
X158304286Y-59290057D02*
X158351905Y-59242438D01*
X158351905Y-59242438D02*
X158447143Y-59194819D01*
X158447143Y-59194819D02*
X158685238Y-59194819D01*
X158685238Y-59194819D02*
X158780476Y-59242438D01*
X158780476Y-59242438D02*
X158828095Y-59290057D01*
X158828095Y-59290057D02*
X158875714Y-59385295D01*
X158875714Y-59385295D02*
X158875714Y-59480533D01*
X158875714Y-59480533D02*
X158828095Y-59623390D01*
X158828095Y-59623390D02*
X158256667Y-60194819D01*
X158256667Y-60194819D02*
X158875714Y-60194819D01*
X111471905Y-97444819D02*
X111471905Y-96444819D01*
X111471905Y-96444819D02*
X111710000Y-96444819D01*
X111710000Y-96444819D02*
X111852857Y-96492438D01*
X111852857Y-96492438D02*
X111948095Y-96587676D01*
X111948095Y-96587676D02*
X111995714Y-96682914D01*
X111995714Y-96682914D02*
X112043333Y-96873390D01*
X112043333Y-96873390D02*
X112043333Y-97016247D01*
X112043333Y-97016247D02*
X111995714Y-97206723D01*
X111995714Y-97206723D02*
X111948095Y-97301961D01*
X111948095Y-97301961D02*
X111852857Y-97397200D01*
X111852857Y-97397200D02*
X111710000Y-97444819D01*
X111710000Y-97444819D02*
X111471905Y-97444819D01*
X112995714Y-97444819D02*
X112424286Y-97444819D01*
X112710000Y-97444819D02*
X112710000Y-96444819D01*
X112710000Y-96444819D02*
X112614762Y-96587676D01*
X112614762Y-96587676D02*
X112519524Y-96682914D01*
X112519524Y-96682914D02*
X112424286Y-96730533D01*
X108138095Y-97814819D02*
X108138095Y-96814819D01*
X108709523Y-97814819D02*
X108280952Y-97243390D01*
X108709523Y-96814819D02*
X108138095Y-97386247D01*
X116362933Y-62469580D02*
X116315314Y-62517200D01*
X116315314Y-62517200D02*
X116172457Y-62564819D01*
X116172457Y-62564819D02*
X116077219Y-62564819D01*
X116077219Y-62564819D02*
X115934362Y-62517200D01*
X115934362Y-62517200D02*
X115839124Y-62421961D01*
X115839124Y-62421961D02*
X115791505Y-62326723D01*
X115791505Y-62326723D02*
X115743886Y-62136247D01*
X115743886Y-62136247D02*
X115743886Y-61993390D01*
X115743886Y-61993390D02*
X115791505Y-61802914D01*
X115791505Y-61802914D02*
X115839124Y-61707676D01*
X115839124Y-61707676D02*
X115934362Y-61612438D01*
X115934362Y-61612438D02*
X116077219Y-61564819D01*
X116077219Y-61564819D02*
X116172457Y-61564819D01*
X116172457Y-61564819D02*
X116315314Y-61612438D01*
X116315314Y-61612438D02*
X116362933Y-61660057D01*
X116696267Y-61564819D02*
X117362933Y-61564819D01*
X117362933Y-61564819D02*
X116934362Y-62564819D01*
X156284761Y-84540057D02*
X156189523Y-84492438D01*
X156189523Y-84492438D02*
X156094285Y-84397200D01*
X156094285Y-84397200D02*
X155951428Y-84254342D01*
X155951428Y-84254342D02*
X155856190Y-84206723D01*
X155856190Y-84206723D02*
X155760952Y-84206723D01*
X155808571Y-84444819D02*
X155713333Y-84397200D01*
X155713333Y-84397200D02*
X155618095Y-84301961D01*
X155618095Y-84301961D02*
X155570476Y-84111485D01*
X155570476Y-84111485D02*
X155570476Y-83778152D01*
X155570476Y-83778152D02*
X155618095Y-83587676D01*
X155618095Y-83587676D02*
X155713333Y-83492438D01*
X155713333Y-83492438D02*
X155808571Y-83444819D01*
X155808571Y-83444819D02*
X155999047Y-83444819D01*
X155999047Y-83444819D02*
X156094285Y-83492438D01*
X156094285Y-83492438D02*
X156189523Y-83587676D01*
X156189523Y-83587676D02*
X156237142Y-83778152D01*
X156237142Y-83778152D02*
X156237142Y-84111485D01*
X156237142Y-84111485D02*
X156189523Y-84301961D01*
X156189523Y-84301961D02*
X156094285Y-84397200D01*
X156094285Y-84397200D02*
X155999047Y-84444819D01*
X155999047Y-84444819D02*
X155808571Y-84444819D01*
X157189523Y-84444819D02*
X156618095Y-84444819D01*
X156903809Y-84444819D02*
X156903809Y-83444819D01*
X156903809Y-83444819D02*
X156808571Y-83587676D01*
X156808571Y-83587676D02*
X156713333Y-83682914D01*
X156713333Y-83682914D02*
X156618095Y-83730533D01*
X116362933Y-75569580D02*
X116315314Y-75617200D01*
X116315314Y-75617200D02*
X116172457Y-75664819D01*
X116172457Y-75664819D02*
X116077219Y-75664819D01*
X116077219Y-75664819D02*
X115934362Y-75617200D01*
X115934362Y-75617200D02*
X115839124Y-75521961D01*
X115839124Y-75521961D02*
X115791505Y-75426723D01*
X115791505Y-75426723D02*
X115743886Y-75236247D01*
X115743886Y-75236247D02*
X115743886Y-75093390D01*
X115743886Y-75093390D02*
X115791505Y-74902914D01*
X115791505Y-74902914D02*
X115839124Y-74807676D01*
X115839124Y-74807676D02*
X115934362Y-74712438D01*
X115934362Y-74712438D02*
X116077219Y-74664819D01*
X116077219Y-74664819D02*
X116172457Y-74664819D01*
X116172457Y-74664819D02*
X116315314Y-74712438D01*
X116315314Y-74712438D02*
X116362933Y-74760057D01*
X116839124Y-75664819D02*
X117029600Y-75664819D01*
X117029600Y-75664819D02*
X117124838Y-75617200D01*
X117124838Y-75617200D02*
X117172457Y-75569580D01*
X117172457Y-75569580D02*
X117267695Y-75426723D01*
X117267695Y-75426723D02*
X117315314Y-75236247D01*
X117315314Y-75236247D02*
X117315314Y-74855295D01*
X117315314Y-74855295D02*
X117267695Y-74760057D01*
X117267695Y-74760057D02*
X117220076Y-74712438D01*
X117220076Y-74712438D02*
X117124838Y-74664819D01*
X117124838Y-74664819D02*
X116934362Y-74664819D01*
X116934362Y-74664819D02*
X116839124Y-74712438D01*
X116839124Y-74712438D02*
X116791505Y-74760057D01*
X116791505Y-74760057D02*
X116743886Y-74855295D01*
X116743886Y-74855295D02*
X116743886Y-75093390D01*
X116743886Y-75093390D02*
X116791505Y-75188628D01*
X116791505Y-75188628D02*
X116839124Y-75236247D01*
X116839124Y-75236247D02*
X116934362Y-75283866D01*
X116934362Y-75283866D02*
X117124838Y-75283866D01*
X117124838Y-75283866D02*
X117220076Y-75236247D01*
X117220076Y-75236247D02*
X117267695Y-75188628D01*
X117267695Y-75188628D02*
X117315314Y-75093390D01*
X157923333Y-64244819D02*
X157590000Y-63768628D01*
X157351905Y-64244819D02*
X157351905Y-63244819D01*
X157351905Y-63244819D02*
X157732857Y-63244819D01*
X157732857Y-63244819D02*
X157828095Y-63292438D01*
X157828095Y-63292438D02*
X157875714Y-63340057D01*
X157875714Y-63340057D02*
X157923333Y-63435295D01*
X157923333Y-63435295D02*
X157923333Y-63578152D01*
X157923333Y-63578152D02*
X157875714Y-63673390D01*
X157875714Y-63673390D02*
X157828095Y-63721009D01*
X157828095Y-63721009D02*
X157732857Y-63768628D01*
X157732857Y-63768628D02*
X157351905Y-63768628D01*
X158256667Y-63244819D02*
X158875714Y-63244819D01*
X158875714Y-63244819D02*
X158542381Y-63625771D01*
X158542381Y-63625771D02*
X158685238Y-63625771D01*
X158685238Y-63625771D02*
X158780476Y-63673390D01*
X158780476Y-63673390D02*
X158828095Y-63721009D01*
X158828095Y-63721009D02*
X158875714Y-63816247D01*
X158875714Y-63816247D02*
X158875714Y-64054342D01*
X158875714Y-64054342D02*
X158828095Y-64149580D01*
X158828095Y-64149580D02*
X158780476Y-64197200D01*
X158780476Y-64197200D02*
X158685238Y-64244819D01*
X158685238Y-64244819D02*
X158399524Y-64244819D01*
X158399524Y-64244819D02*
X158304286Y-64197200D01*
X158304286Y-64197200D02*
X158256667Y-64149580D01*
X112523809Y-105648628D02*
X112523809Y-106124819D01*
X112190476Y-105124819D02*
X112523809Y-105648628D01*
X112523809Y-105648628D02*
X112857142Y-105124819D01*
X113714285Y-106124819D02*
X113142857Y-106124819D01*
X113428571Y-106124819D02*
X113428571Y-105124819D01*
X113428571Y-105124819D02*
X113333333Y-105267676D01*
X113333333Y-105267676D02*
X113238095Y-105362914D01*
X113238095Y-105362914D02*
X113142857Y-105410533D01*
X155618095Y-89394819D02*
X155618095Y-90204342D01*
X155618095Y-90204342D02*
X155665714Y-90299580D01*
X155665714Y-90299580D02*
X155713333Y-90347200D01*
X155713333Y-90347200D02*
X155808571Y-90394819D01*
X155808571Y-90394819D02*
X155999047Y-90394819D01*
X155999047Y-90394819D02*
X156094285Y-90347200D01*
X156094285Y-90347200D02*
X156141904Y-90299580D01*
X156141904Y-90299580D02*
X156189523Y-90204342D01*
X156189523Y-90204342D02*
X156189523Y-89394819D01*
X157094285Y-89728152D02*
X157094285Y-90394819D01*
X156856190Y-89347200D02*
X156618095Y-90061485D01*
X156618095Y-90061485D02*
X157237142Y-90061485D01*
X157923333Y-76394819D02*
X157590000Y-75918628D01*
X157351905Y-76394819D02*
X157351905Y-75394819D01*
X157351905Y-75394819D02*
X157732857Y-75394819D01*
X157732857Y-75394819D02*
X157828095Y-75442438D01*
X157828095Y-75442438D02*
X157875714Y-75490057D01*
X157875714Y-75490057D02*
X157923333Y-75585295D01*
X157923333Y-75585295D02*
X157923333Y-75728152D01*
X157923333Y-75728152D02*
X157875714Y-75823390D01*
X157875714Y-75823390D02*
X157828095Y-75871009D01*
X157828095Y-75871009D02*
X157732857Y-75918628D01*
X157732857Y-75918628D02*
X157351905Y-75918628D01*
X158780476Y-75394819D02*
X158590000Y-75394819D01*
X158590000Y-75394819D02*
X158494762Y-75442438D01*
X158494762Y-75442438D02*
X158447143Y-75490057D01*
X158447143Y-75490057D02*
X158351905Y-75632914D01*
X158351905Y-75632914D02*
X158304286Y-75823390D01*
X158304286Y-75823390D02*
X158304286Y-76204342D01*
X158304286Y-76204342D02*
X158351905Y-76299580D01*
X158351905Y-76299580D02*
X158399524Y-76347200D01*
X158399524Y-76347200D02*
X158494762Y-76394819D01*
X158494762Y-76394819D02*
X158685238Y-76394819D01*
X158685238Y-76394819D02*
X158780476Y-76347200D01*
X158780476Y-76347200D02*
X158828095Y-76299580D01*
X158828095Y-76299580D02*
X158875714Y-76204342D01*
X158875714Y-76204342D02*
X158875714Y-75966247D01*
X158875714Y-75966247D02*
X158828095Y-75871009D01*
X158828095Y-75871009D02*
X158780476Y-75823390D01*
X158780476Y-75823390D02*
X158685238Y-75775771D01*
X158685238Y-75775771D02*
X158494762Y-75775771D01*
X158494762Y-75775771D02*
X158399524Y-75823390D01*
X158399524Y-75823390D02*
X158351905Y-75871009D01*
X158351905Y-75871009D02*
X158304286Y-75966247D01*
X157923333Y-72344819D02*
X157590000Y-71868628D01*
X157351905Y-72344819D02*
X157351905Y-71344819D01*
X157351905Y-71344819D02*
X157732857Y-71344819D01*
X157732857Y-71344819D02*
X157828095Y-71392438D01*
X157828095Y-71392438D02*
X157875714Y-71440057D01*
X157875714Y-71440057D02*
X157923333Y-71535295D01*
X157923333Y-71535295D02*
X157923333Y-71678152D01*
X157923333Y-71678152D02*
X157875714Y-71773390D01*
X157875714Y-71773390D02*
X157828095Y-71821009D01*
X157828095Y-71821009D02*
X157732857Y-71868628D01*
X157732857Y-71868628D02*
X157351905Y-71868628D01*
X158828095Y-71344819D02*
X158351905Y-71344819D01*
X158351905Y-71344819D02*
X158304286Y-71821009D01*
X158304286Y-71821009D02*
X158351905Y-71773390D01*
X158351905Y-71773390D02*
X158447143Y-71725771D01*
X158447143Y-71725771D02*
X158685238Y-71725771D01*
X158685238Y-71725771D02*
X158780476Y-71773390D01*
X158780476Y-71773390D02*
X158828095Y-71821009D01*
X158828095Y-71821009D02*
X158875714Y-71916247D01*
X158875714Y-71916247D02*
X158875714Y-72154342D01*
X158875714Y-72154342D02*
X158828095Y-72249580D01*
X158828095Y-72249580D02*
X158780476Y-72297200D01*
X158780476Y-72297200D02*
X158685238Y-72344819D01*
X158685238Y-72344819D02*
X158447143Y-72344819D01*
X158447143Y-72344819D02*
X158351905Y-72297200D01*
X158351905Y-72297200D02*
X158304286Y-72249580D01*
X146121905Y-91864819D02*
X146121905Y-90864819D01*
X146121905Y-90864819D02*
X146360000Y-90864819D01*
X146360000Y-90864819D02*
X146502857Y-90912438D01*
X146502857Y-90912438D02*
X146598095Y-91007676D01*
X146598095Y-91007676D02*
X146645714Y-91102914D01*
X146645714Y-91102914D02*
X146693333Y-91293390D01*
X146693333Y-91293390D02*
X146693333Y-91436247D01*
X146693333Y-91436247D02*
X146645714Y-91626723D01*
X146645714Y-91626723D02*
X146598095Y-91721961D01*
X146598095Y-91721961D02*
X146502857Y-91817200D01*
X146502857Y-91817200D02*
X146360000Y-91864819D01*
X146360000Y-91864819D02*
X146121905Y-91864819D01*
X147550476Y-91198152D02*
X147550476Y-91864819D01*
X147312381Y-90817200D02*
X147074286Y-91531485D01*
X147074286Y-91531485D02*
X147693333Y-91531485D01*
X116362933Y-69019580D02*
X116315314Y-69067200D01*
X116315314Y-69067200D02*
X116172457Y-69114819D01*
X116172457Y-69114819D02*
X116077219Y-69114819D01*
X116077219Y-69114819D02*
X115934362Y-69067200D01*
X115934362Y-69067200D02*
X115839124Y-68971961D01*
X115839124Y-68971961D02*
X115791505Y-68876723D01*
X115791505Y-68876723D02*
X115743886Y-68686247D01*
X115743886Y-68686247D02*
X115743886Y-68543390D01*
X115743886Y-68543390D02*
X115791505Y-68352914D01*
X115791505Y-68352914D02*
X115839124Y-68257676D01*
X115839124Y-68257676D02*
X115934362Y-68162438D01*
X115934362Y-68162438D02*
X116077219Y-68114819D01*
X116077219Y-68114819D02*
X116172457Y-68114819D01*
X116172457Y-68114819D02*
X116315314Y-68162438D01*
X116315314Y-68162438D02*
X116362933Y-68210057D01*
X116934362Y-68543390D02*
X116839124Y-68495771D01*
X116839124Y-68495771D02*
X116791505Y-68448152D01*
X116791505Y-68448152D02*
X116743886Y-68352914D01*
X116743886Y-68352914D02*
X116743886Y-68305295D01*
X116743886Y-68305295D02*
X116791505Y-68210057D01*
X116791505Y-68210057D02*
X116839124Y-68162438D01*
X116839124Y-68162438D02*
X116934362Y-68114819D01*
X116934362Y-68114819D02*
X117124838Y-68114819D01*
X117124838Y-68114819D02*
X117220076Y-68162438D01*
X117220076Y-68162438D02*
X117267695Y-68210057D01*
X117267695Y-68210057D02*
X117315314Y-68305295D01*
X117315314Y-68305295D02*
X117315314Y-68352914D01*
X117315314Y-68352914D02*
X117267695Y-68448152D01*
X117267695Y-68448152D02*
X117220076Y-68495771D01*
X117220076Y-68495771D02*
X117124838Y-68543390D01*
X117124838Y-68543390D02*
X116934362Y-68543390D01*
X116934362Y-68543390D02*
X116839124Y-68591009D01*
X116839124Y-68591009D02*
X116791505Y-68638628D01*
X116791505Y-68638628D02*
X116743886Y-68733866D01*
X116743886Y-68733866D02*
X116743886Y-68924342D01*
X116743886Y-68924342D02*
X116791505Y-69019580D01*
X116791505Y-69019580D02*
X116839124Y-69067200D01*
X116839124Y-69067200D02*
X116934362Y-69114819D01*
X116934362Y-69114819D02*
X117124838Y-69114819D01*
X117124838Y-69114819D02*
X117220076Y-69067200D01*
X117220076Y-69067200D02*
X117267695Y-69019580D01*
X117267695Y-69019580D02*
X117315314Y-68924342D01*
X117315314Y-68924342D02*
X117315314Y-68733866D01*
X117315314Y-68733866D02*
X117267695Y-68638628D01*
X117267695Y-68638628D02*
X117220076Y-68591009D01*
X117220076Y-68591009D02*
X117124838Y-68543390D01*
X111471905Y-101694819D02*
X111471905Y-100694819D01*
X111471905Y-100694819D02*
X111710000Y-100694819D01*
X111710000Y-100694819D02*
X111852857Y-100742438D01*
X111852857Y-100742438D02*
X111948095Y-100837676D01*
X111948095Y-100837676D02*
X111995714Y-100932914D01*
X111995714Y-100932914D02*
X112043333Y-101123390D01*
X112043333Y-101123390D02*
X112043333Y-101266247D01*
X112043333Y-101266247D02*
X111995714Y-101456723D01*
X111995714Y-101456723D02*
X111948095Y-101551961D01*
X111948095Y-101551961D02*
X111852857Y-101647200D01*
X111852857Y-101647200D02*
X111710000Y-101694819D01*
X111710000Y-101694819D02*
X111471905Y-101694819D01*
X112376667Y-100694819D02*
X112995714Y-100694819D01*
X112995714Y-100694819D02*
X112662381Y-101075771D01*
X112662381Y-101075771D02*
X112805238Y-101075771D01*
X112805238Y-101075771D02*
X112900476Y-101123390D01*
X112900476Y-101123390D02*
X112948095Y-101171009D01*
X112948095Y-101171009D02*
X112995714Y-101266247D01*
X112995714Y-101266247D02*
X112995714Y-101504342D01*
X112995714Y-101504342D02*
X112948095Y-101599580D01*
X112948095Y-101599580D02*
X112900476Y-101647200D01*
X112900476Y-101647200D02*
X112805238Y-101694819D01*
X112805238Y-101694819D02*
X112519524Y-101694819D01*
X112519524Y-101694819D02*
X112424286Y-101647200D01*
X112424286Y-101647200D02*
X112376667Y-101599580D01*
X108138095Y-102064819D02*
X108138095Y-101064819D01*
X108709523Y-102064819D02*
X108280952Y-101493390D01*
X108709523Y-101064819D02*
X108138095Y-101636247D01*
X157634761Y-106490057D02*
X157539523Y-106442438D01*
X157539523Y-106442438D02*
X157444285Y-106347200D01*
X157444285Y-106347200D02*
X157301428Y-106204342D01*
X157301428Y-106204342D02*
X157206190Y-106156723D01*
X157206190Y-106156723D02*
X157110952Y-106156723D01*
X157158571Y-106394819D02*
X157063333Y-106347200D01*
X157063333Y-106347200D02*
X156968095Y-106251961D01*
X156968095Y-106251961D02*
X156920476Y-106061485D01*
X156920476Y-106061485D02*
X156920476Y-105728152D01*
X156920476Y-105728152D02*
X156968095Y-105537676D01*
X156968095Y-105537676D02*
X157063333Y-105442438D01*
X157063333Y-105442438D02*
X157158571Y-105394819D01*
X157158571Y-105394819D02*
X157349047Y-105394819D01*
X157349047Y-105394819D02*
X157444285Y-105442438D01*
X157444285Y-105442438D02*
X157539523Y-105537676D01*
X157539523Y-105537676D02*
X157587142Y-105728152D01*
X157587142Y-105728152D02*
X157587142Y-106061485D01*
X157587142Y-106061485D02*
X157539523Y-106251961D01*
X157539523Y-106251961D02*
X157444285Y-106347200D01*
X157444285Y-106347200D02*
X157349047Y-106394819D01*
X157349047Y-106394819D02*
X157158571Y-106394819D01*
X157968095Y-105490057D02*
X158015714Y-105442438D01*
X158015714Y-105442438D02*
X158110952Y-105394819D01*
X158110952Y-105394819D02*
X158349047Y-105394819D01*
X158349047Y-105394819D02*
X158444285Y-105442438D01*
X158444285Y-105442438D02*
X158491904Y-105490057D01*
X158491904Y-105490057D02*
X158539523Y-105585295D01*
X158539523Y-105585295D02*
X158539523Y-105680533D01*
X158539523Y-105680533D02*
X158491904Y-105823390D01*
X158491904Y-105823390D02*
X157920476Y-106394819D01*
X157920476Y-106394819D02*
X158539523Y-106394819D01*
X148038095Y-98384819D02*
X148038095Y-99194342D01*
X148038095Y-99194342D02*
X148085714Y-99289580D01*
X148085714Y-99289580D02*
X148133333Y-99337200D01*
X148133333Y-99337200D02*
X148228571Y-99384819D01*
X148228571Y-99384819D02*
X148419047Y-99384819D01*
X148419047Y-99384819D02*
X148514285Y-99337200D01*
X148514285Y-99337200D02*
X148561904Y-99289580D01*
X148561904Y-99289580D02*
X148609523Y-99194342D01*
X148609523Y-99194342D02*
X148609523Y-98384819D01*
X149609523Y-99384819D02*
X149038095Y-99384819D01*
X149323809Y-99384819D02*
X149323809Y-98384819D01*
X149323809Y-98384819D02*
X149228571Y-98527676D01*
X149228571Y-98527676D02*
X149133333Y-98622914D01*
X149133333Y-98622914D02*
X149038095Y-98670533D01*
X124428095Y-83334819D02*
X124428095Y-84144342D01*
X124428095Y-84144342D02*
X124475714Y-84239580D01*
X124475714Y-84239580D02*
X124523333Y-84287200D01*
X124523333Y-84287200D02*
X124618571Y-84334819D01*
X124618571Y-84334819D02*
X124809047Y-84334819D01*
X124809047Y-84334819D02*
X124904285Y-84287200D01*
X124904285Y-84287200D02*
X124951904Y-84239580D01*
X124951904Y-84239580D02*
X124999523Y-84144342D01*
X124999523Y-84144342D02*
X124999523Y-83334819D01*
X125428095Y-83430057D02*
X125475714Y-83382438D01*
X125475714Y-83382438D02*
X125570952Y-83334819D01*
X125570952Y-83334819D02*
X125809047Y-83334819D01*
X125809047Y-83334819D02*
X125904285Y-83382438D01*
X125904285Y-83382438D02*
X125951904Y-83430057D01*
X125951904Y-83430057D02*
X125999523Y-83525295D01*
X125999523Y-83525295D02*
X125999523Y-83620533D01*
X125999523Y-83620533D02*
X125951904Y-83763390D01*
X125951904Y-83763390D02*
X125380476Y-84334819D01*
X125380476Y-84334819D02*
X125999523Y-84334819D01*
X136516666Y-93639819D02*
X136516666Y-94354104D01*
X136516666Y-94354104D02*
X136469047Y-94496961D01*
X136469047Y-94496961D02*
X136373809Y-94592200D01*
X136373809Y-94592200D02*
X136230952Y-94639819D01*
X136230952Y-94639819D02*
X136135714Y-94639819D01*
X136897619Y-93639819D02*
X137516666Y-93639819D01*
X137516666Y-93639819D02*
X137183333Y-94020771D01*
X137183333Y-94020771D02*
X137326190Y-94020771D01*
X137326190Y-94020771D02*
X137421428Y-94068390D01*
X137421428Y-94068390D02*
X137469047Y-94116009D01*
X137469047Y-94116009D02*
X137516666Y-94211247D01*
X137516666Y-94211247D02*
X137516666Y-94449342D01*
X137516666Y-94449342D02*
X137469047Y-94544580D01*
X137469047Y-94544580D02*
X137421428Y-94592200D01*
X137421428Y-94592200D02*
X137326190Y-94639819D01*
X137326190Y-94639819D02*
X137040476Y-94639819D01*
X137040476Y-94639819D02*
X136945238Y-94592200D01*
X136945238Y-94592200D02*
X136897619Y-94544580D01*
X136051666Y-82094819D02*
X136051666Y-82809104D01*
X136051666Y-82809104D02*
X136004047Y-82951961D01*
X136004047Y-82951961D02*
X135908809Y-83047200D01*
X135908809Y-83047200D02*
X135765952Y-83094819D01*
X135765952Y-83094819D02*
X135670714Y-83094819D01*
X136480238Y-82190057D02*
X136527857Y-82142438D01*
X136527857Y-82142438D02*
X136623095Y-82094819D01*
X136623095Y-82094819D02*
X136861190Y-82094819D01*
X136861190Y-82094819D02*
X136956428Y-82142438D01*
X136956428Y-82142438D02*
X137004047Y-82190057D01*
X137004047Y-82190057D02*
X137051666Y-82285295D01*
X137051666Y-82285295D02*
X137051666Y-82380533D01*
X137051666Y-82380533D02*
X137004047Y-82523390D01*
X137004047Y-82523390D02*
X136432619Y-83094819D01*
X136432619Y-83094819D02*
X137051666Y-83094819D01*
X155960476Y-99474819D02*
X155960476Y-98474819D01*
X155960476Y-98474819D02*
X156293809Y-99189104D01*
X156293809Y-99189104D02*
X156627142Y-98474819D01*
X156627142Y-98474819D02*
X156627142Y-99474819D01*
X157627142Y-99474819D02*
X157055714Y-99474819D01*
X157341428Y-99474819D02*
X157341428Y-98474819D01*
X157341428Y-98474819D02*
X157246190Y-98617676D01*
X157246190Y-98617676D02*
X157150952Y-98712914D01*
X157150952Y-98712914D02*
X157055714Y-98760533D01*
X109723133Y-62469580D02*
X109675514Y-62517200D01*
X109675514Y-62517200D02*
X109532657Y-62564819D01*
X109532657Y-62564819D02*
X109437419Y-62564819D01*
X109437419Y-62564819D02*
X109294562Y-62517200D01*
X109294562Y-62517200D02*
X109199324Y-62421961D01*
X109199324Y-62421961D02*
X109151705Y-62326723D01*
X109151705Y-62326723D02*
X109104086Y-62136247D01*
X109104086Y-62136247D02*
X109104086Y-61993390D01*
X109104086Y-61993390D02*
X109151705Y-61802914D01*
X109151705Y-61802914D02*
X109199324Y-61707676D01*
X109199324Y-61707676D02*
X109294562Y-61612438D01*
X109294562Y-61612438D02*
X109437419Y-61564819D01*
X109437419Y-61564819D02*
X109532657Y-61564819D01*
X109532657Y-61564819D02*
X109675514Y-61612438D01*
X109675514Y-61612438D02*
X109723133Y-61660057D01*
X110104086Y-61660057D02*
X110151705Y-61612438D01*
X110151705Y-61612438D02*
X110246943Y-61564819D01*
X110246943Y-61564819D02*
X110485038Y-61564819D01*
X110485038Y-61564819D02*
X110580276Y-61612438D01*
X110580276Y-61612438D02*
X110627895Y-61660057D01*
X110627895Y-61660057D02*
X110675514Y-61755295D01*
X110675514Y-61755295D02*
X110675514Y-61850533D01*
X110675514Y-61850533D02*
X110627895Y-61993390D01*
X110627895Y-61993390D02*
X110056467Y-62564819D01*
X110056467Y-62564819D02*
X110675514Y-62564819D01*
X146121905Y-84394819D02*
X146121905Y-83394819D01*
X146121905Y-83394819D02*
X146360000Y-83394819D01*
X146360000Y-83394819D02*
X146502857Y-83442438D01*
X146502857Y-83442438D02*
X146598095Y-83537676D01*
X146598095Y-83537676D02*
X146645714Y-83632914D01*
X146645714Y-83632914D02*
X146693333Y-83823390D01*
X146693333Y-83823390D02*
X146693333Y-83966247D01*
X146693333Y-83966247D02*
X146645714Y-84156723D01*
X146645714Y-84156723D02*
X146598095Y-84251961D01*
X146598095Y-84251961D02*
X146502857Y-84347200D01*
X146502857Y-84347200D02*
X146360000Y-84394819D01*
X146360000Y-84394819D02*
X146121905Y-84394819D01*
X147074286Y-83490057D02*
X147121905Y-83442438D01*
X147121905Y-83442438D02*
X147217143Y-83394819D01*
X147217143Y-83394819D02*
X147455238Y-83394819D01*
X147455238Y-83394819D02*
X147550476Y-83442438D01*
X147550476Y-83442438D02*
X147598095Y-83490057D01*
X147598095Y-83490057D02*
X147645714Y-83585295D01*
X147645714Y-83585295D02*
X147645714Y-83680533D01*
X147645714Y-83680533D02*
X147598095Y-83823390D01*
X147598095Y-83823390D02*
X147026667Y-84394819D01*
X147026667Y-84394819D02*
X147645714Y-84394819D01*
X109723133Y-55919580D02*
X109675514Y-55967200D01*
X109675514Y-55967200D02*
X109532657Y-56014819D01*
X109532657Y-56014819D02*
X109437419Y-56014819D01*
X109437419Y-56014819D02*
X109294562Y-55967200D01*
X109294562Y-55967200D02*
X109199324Y-55871961D01*
X109199324Y-55871961D02*
X109151705Y-55776723D01*
X109151705Y-55776723D02*
X109104086Y-55586247D01*
X109104086Y-55586247D02*
X109104086Y-55443390D01*
X109104086Y-55443390D02*
X109151705Y-55252914D01*
X109151705Y-55252914D02*
X109199324Y-55157676D01*
X109199324Y-55157676D02*
X109294562Y-55062438D01*
X109294562Y-55062438D02*
X109437419Y-55014819D01*
X109437419Y-55014819D02*
X109532657Y-55014819D01*
X109532657Y-55014819D02*
X109675514Y-55062438D01*
X109675514Y-55062438D02*
X109723133Y-55110057D01*
X110675514Y-56014819D02*
X110104086Y-56014819D01*
X110389800Y-56014819D02*
X110389800Y-55014819D01*
X110389800Y-55014819D02*
X110294562Y-55157676D01*
X110294562Y-55157676D02*
X110199324Y-55252914D01*
X110199324Y-55252914D02*
X110104086Y-55300533D01*
X136516666Y-83524819D02*
X136516666Y-84239104D01*
X136516666Y-84239104D02*
X136469047Y-84381961D01*
X136469047Y-84381961D02*
X136373809Y-84477200D01*
X136373809Y-84477200D02*
X136230952Y-84524819D01*
X136230952Y-84524819D02*
X136135714Y-84524819D01*
X137516666Y-84524819D02*
X136945238Y-84524819D01*
X137230952Y-84524819D02*
X137230952Y-83524819D01*
X137230952Y-83524819D02*
X137135714Y-83667676D01*
X137135714Y-83667676D02*
X137040476Y-83762914D01*
X137040476Y-83762914D02*
X136945238Y-83810533D01*
X110466667Y-89217200D02*
X110609524Y-89264819D01*
X110609524Y-89264819D02*
X110847619Y-89264819D01*
X110847619Y-89264819D02*
X110942857Y-89217200D01*
X110942857Y-89217200D02*
X110990476Y-89169580D01*
X110990476Y-89169580D02*
X111038095Y-89074342D01*
X111038095Y-89074342D02*
X111038095Y-88979104D01*
X111038095Y-88979104D02*
X110990476Y-88883866D01*
X110990476Y-88883866D02*
X110942857Y-88836247D01*
X110942857Y-88836247D02*
X110847619Y-88788628D01*
X110847619Y-88788628D02*
X110657143Y-88741009D01*
X110657143Y-88741009D02*
X110561905Y-88693390D01*
X110561905Y-88693390D02*
X110514286Y-88645771D01*
X110514286Y-88645771D02*
X110466667Y-88550533D01*
X110466667Y-88550533D02*
X110466667Y-88455295D01*
X110466667Y-88455295D02*
X110514286Y-88360057D01*
X110514286Y-88360057D02*
X110561905Y-88312438D01*
X110561905Y-88312438D02*
X110657143Y-88264819D01*
X110657143Y-88264819D02*
X110895238Y-88264819D01*
X110895238Y-88264819D02*
X111038095Y-88312438D01*
X111371429Y-88264819D02*
X111609524Y-89264819D01*
X111609524Y-89264819D02*
X111800000Y-88550533D01*
X111800000Y-88550533D02*
X111990476Y-89264819D01*
X111990476Y-89264819D02*
X112228572Y-88264819D01*
X113133333Y-89264819D02*
X112561905Y-89264819D01*
X112847619Y-89264819D02*
X112847619Y-88264819D01*
X112847619Y-88264819D02*
X112752381Y-88407676D01*
X112752381Y-88407676D02*
X112657143Y-88502914D01*
X112657143Y-88502914D02*
X112561905Y-88550533D01*
X157923333Y-68294819D02*
X157590000Y-67818628D01*
X157351905Y-68294819D02*
X157351905Y-67294819D01*
X157351905Y-67294819D02*
X157732857Y-67294819D01*
X157732857Y-67294819D02*
X157828095Y-67342438D01*
X157828095Y-67342438D02*
X157875714Y-67390057D01*
X157875714Y-67390057D02*
X157923333Y-67485295D01*
X157923333Y-67485295D02*
X157923333Y-67628152D01*
X157923333Y-67628152D02*
X157875714Y-67723390D01*
X157875714Y-67723390D02*
X157828095Y-67771009D01*
X157828095Y-67771009D02*
X157732857Y-67818628D01*
X157732857Y-67818628D02*
X157351905Y-67818628D01*
X158780476Y-67628152D02*
X158780476Y-68294819D01*
X158542381Y-67247200D02*
X158304286Y-67961485D01*
X158304286Y-67961485D02*
X158923333Y-67961485D01*
X109723133Y-69019580D02*
X109675514Y-69067200D01*
X109675514Y-69067200D02*
X109532657Y-69114819D01*
X109532657Y-69114819D02*
X109437419Y-69114819D01*
X109437419Y-69114819D02*
X109294562Y-69067200D01*
X109294562Y-69067200D02*
X109199324Y-68971961D01*
X109199324Y-68971961D02*
X109151705Y-68876723D01*
X109151705Y-68876723D02*
X109104086Y-68686247D01*
X109104086Y-68686247D02*
X109104086Y-68543390D01*
X109104086Y-68543390D02*
X109151705Y-68352914D01*
X109151705Y-68352914D02*
X109199324Y-68257676D01*
X109199324Y-68257676D02*
X109294562Y-68162438D01*
X109294562Y-68162438D02*
X109437419Y-68114819D01*
X109437419Y-68114819D02*
X109532657Y-68114819D01*
X109532657Y-68114819D02*
X109675514Y-68162438D01*
X109675514Y-68162438D02*
X109723133Y-68210057D01*
X110056467Y-68114819D02*
X110675514Y-68114819D01*
X110675514Y-68114819D02*
X110342181Y-68495771D01*
X110342181Y-68495771D02*
X110485038Y-68495771D01*
X110485038Y-68495771D02*
X110580276Y-68543390D01*
X110580276Y-68543390D02*
X110627895Y-68591009D01*
X110627895Y-68591009D02*
X110675514Y-68686247D01*
X110675514Y-68686247D02*
X110675514Y-68924342D01*
X110675514Y-68924342D02*
X110627895Y-69019580D01*
X110627895Y-69019580D02*
X110580276Y-69067200D01*
X110580276Y-69067200D02*
X110485038Y-69114819D01*
X110485038Y-69114819D02*
X110199324Y-69114819D01*
X110199324Y-69114819D02*
X110104086Y-69067200D01*
X110104086Y-69067200D02*
X110056467Y-69019580D01*
X115886742Y-82119580D02*
X115839123Y-82167200D01*
X115839123Y-82167200D02*
X115696266Y-82214819D01*
X115696266Y-82214819D02*
X115601028Y-82214819D01*
X115601028Y-82214819D02*
X115458171Y-82167200D01*
X115458171Y-82167200D02*
X115362933Y-82071961D01*
X115362933Y-82071961D02*
X115315314Y-81976723D01*
X115315314Y-81976723D02*
X115267695Y-81786247D01*
X115267695Y-81786247D02*
X115267695Y-81643390D01*
X115267695Y-81643390D02*
X115315314Y-81452914D01*
X115315314Y-81452914D02*
X115362933Y-81357676D01*
X115362933Y-81357676D02*
X115458171Y-81262438D01*
X115458171Y-81262438D02*
X115601028Y-81214819D01*
X115601028Y-81214819D02*
X115696266Y-81214819D01*
X115696266Y-81214819D02*
X115839123Y-81262438D01*
X115839123Y-81262438D02*
X115886742Y-81310057D01*
X116839123Y-82214819D02*
X116267695Y-82214819D01*
X116553409Y-82214819D02*
X116553409Y-81214819D01*
X116553409Y-81214819D02*
X116458171Y-81357676D01*
X116458171Y-81357676D02*
X116362933Y-81452914D01*
X116362933Y-81452914D02*
X116267695Y-81500533D01*
X117458171Y-81214819D02*
X117553409Y-81214819D01*
X117553409Y-81214819D02*
X117648647Y-81262438D01*
X117648647Y-81262438D02*
X117696266Y-81310057D01*
X117696266Y-81310057D02*
X117743885Y-81405295D01*
X117743885Y-81405295D02*
X117791504Y-81595771D01*
X117791504Y-81595771D02*
X117791504Y-81833866D01*
X117791504Y-81833866D02*
X117743885Y-82024342D01*
X117743885Y-82024342D02*
X117696266Y-82119580D01*
X117696266Y-82119580D02*
X117648647Y-82167200D01*
X117648647Y-82167200D02*
X117553409Y-82214819D01*
X117553409Y-82214819D02*
X117458171Y-82214819D01*
X117458171Y-82214819D02*
X117362933Y-82167200D01*
X117362933Y-82167200D02*
X117315314Y-82119580D01*
X117315314Y-82119580D02*
X117267695Y-82024342D01*
X117267695Y-82024342D02*
X117220076Y-81833866D01*
X117220076Y-81833866D02*
X117220076Y-81595771D01*
X117220076Y-81595771D02*
X117267695Y-81405295D01*
X117267695Y-81405295D02*
X117315314Y-81310057D01*
X117315314Y-81310057D02*
X117362933Y-81262438D01*
X117362933Y-81262438D02*
X117458171Y-81214819D01*
D11*
%TO.C,C6*%
X113724825Y-57835000D02*
X114224825Y-57835000D01*
X113974825Y-57585000D02*
X113974825Y-58085000D01*
X116529600Y-56730000D02*
X116529600Y-61890000D01*
X116569600Y-56730000D02*
X116569600Y-61890000D01*
X116609600Y-56731000D02*
X116609600Y-61889000D01*
X116649600Y-56733000D02*
X116649600Y-61887000D01*
X116689600Y-56735000D02*
X116689600Y-61885000D01*
X116729600Y-56738000D02*
X116729600Y-61882000D01*
X116769600Y-56741000D02*
X116769600Y-58270000D01*
X116769600Y-60350000D02*
X116769600Y-61879000D01*
X116809600Y-56745000D02*
X116809600Y-58270000D01*
X116809600Y-60350000D02*
X116809600Y-61875000D01*
X116849600Y-56750000D02*
X116849600Y-58270000D01*
X116849600Y-60350000D02*
X116849600Y-61870000D01*
X116889600Y-56755000D02*
X116889600Y-58270000D01*
X116889600Y-60350000D02*
X116889600Y-61865000D01*
X116929600Y-56761000D02*
X116929600Y-58270000D01*
X116929600Y-60350000D02*
X116929600Y-61859000D01*
X116969600Y-56767000D02*
X116969600Y-58270000D01*
X116969600Y-60350000D02*
X116969600Y-61853000D01*
X117009600Y-56774000D02*
X117009600Y-58270000D01*
X117009600Y-60350000D02*
X117009600Y-61846000D01*
X117049600Y-56782000D02*
X117049600Y-58270000D01*
X117049600Y-60350000D02*
X117049600Y-61838000D01*
X117089600Y-56791000D02*
X117089600Y-58270000D01*
X117089600Y-60350000D02*
X117089600Y-61829000D01*
X117129600Y-56800000D02*
X117129600Y-58270000D01*
X117129600Y-60350000D02*
X117129600Y-61820000D01*
X117169600Y-56809000D02*
X117169600Y-58270000D01*
X117169600Y-60350000D02*
X117169600Y-61811000D01*
X117209600Y-56820000D02*
X117209600Y-58270000D01*
X117209600Y-60350000D02*
X117209600Y-61800000D01*
X117249600Y-56831000D02*
X117249600Y-58270000D01*
X117249600Y-60350000D02*
X117249600Y-61789000D01*
X117289600Y-56843000D02*
X117289600Y-58270000D01*
X117289600Y-60350000D02*
X117289600Y-61777000D01*
X117329600Y-56855000D02*
X117329600Y-58270000D01*
X117329600Y-60350000D02*
X117329600Y-61765000D01*
X117369600Y-56868000D02*
X117369600Y-58270000D01*
X117369600Y-60350000D02*
X117369600Y-61752000D01*
X117409600Y-56882000D02*
X117409600Y-58270000D01*
X117409600Y-60350000D02*
X117409600Y-61738000D01*
X117449600Y-56897000D02*
X117449600Y-58270000D01*
X117449600Y-60350000D02*
X117449600Y-61723000D01*
X117489600Y-56912000D02*
X117489600Y-58270000D01*
X117489600Y-60350000D02*
X117489600Y-61708000D01*
X117529600Y-56928000D02*
X117529600Y-58270000D01*
X117529600Y-60350000D02*
X117529600Y-61692000D01*
X117569600Y-56945000D02*
X117569600Y-58270000D01*
X117569600Y-60350000D02*
X117569600Y-61675000D01*
X117609600Y-56963000D02*
X117609600Y-58270000D01*
X117609600Y-60350000D02*
X117609600Y-61657000D01*
X117649600Y-56981000D02*
X117649600Y-58270000D01*
X117649600Y-60350000D02*
X117649600Y-61639000D01*
X117689600Y-57001000D02*
X117689600Y-58270000D01*
X117689600Y-60350000D02*
X117689600Y-61619000D01*
X117729600Y-57021000D02*
X117729600Y-58270000D01*
X117729600Y-60350000D02*
X117729600Y-61599000D01*
X117769600Y-57042000D02*
X117769600Y-58270000D01*
X117769600Y-60350000D02*
X117769600Y-61578000D01*
X117809600Y-57064000D02*
X117809600Y-58270000D01*
X117809600Y-60350000D02*
X117809600Y-61556000D01*
X117849600Y-57087000D02*
X117849600Y-58270000D01*
X117849600Y-60350000D02*
X117849600Y-61533000D01*
X117889600Y-57111000D02*
X117889600Y-58270000D01*
X117889600Y-60350000D02*
X117889600Y-61509000D01*
X117929600Y-57135000D02*
X117929600Y-58270000D01*
X117929600Y-60350000D02*
X117929600Y-61485000D01*
X117969600Y-57161000D02*
X117969600Y-58270000D01*
X117969600Y-60350000D02*
X117969600Y-61459000D01*
X118009600Y-57188000D02*
X118009600Y-58270000D01*
X118009600Y-60350000D02*
X118009600Y-61432000D01*
X118049600Y-57216000D02*
X118049600Y-58270000D01*
X118049600Y-60350000D02*
X118049600Y-61404000D01*
X118089600Y-57245000D02*
X118089600Y-58270000D01*
X118089600Y-60350000D02*
X118089600Y-61375000D01*
X118129600Y-57275000D02*
X118129600Y-58270000D01*
X118129600Y-60350000D02*
X118129600Y-61345000D01*
X118169600Y-57307000D02*
X118169600Y-58270000D01*
X118169600Y-60350000D02*
X118169600Y-61313000D01*
X118209600Y-57340000D02*
X118209600Y-58270000D01*
X118209600Y-60350000D02*
X118209600Y-61280000D01*
X118249600Y-57374000D02*
X118249600Y-58270000D01*
X118249600Y-60350000D02*
X118249600Y-61246000D01*
X118289600Y-57409000D02*
X118289600Y-58270000D01*
X118289600Y-60350000D02*
X118289600Y-61211000D01*
X118329600Y-57446000D02*
X118329600Y-58270000D01*
X118329600Y-60350000D02*
X118329600Y-61174000D01*
X118369600Y-57485000D02*
X118369600Y-58270000D01*
X118369600Y-60350000D02*
X118369600Y-61135000D01*
X118409600Y-57525000D02*
X118409600Y-58270000D01*
X118409600Y-60350000D02*
X118409600Y-61095000D01*
X118449600Y-57567000D02*
X118449600Y-58270000D01*
X118449600Y-60350000D02*
X118449600Y-61053000D01*
X118489600Y-57611000D02*
X118489600Y-58270000D01*
X118489600Y-60350000D02*
X118489600Y-61009000D01*
X118529600Y-57658000D02*
X118529600Y-58270000D01*
X118529600Y-60350000D02*
X118529600Y-60962000D01*
X118569600Y-57706000D02*
X118569600Y-58270000D01*
X118569600Y-60350000D02*
X118569600Y-60914000D01*
X118609600Y-57757000D02*
X118609600Y-58270000D01*
X118609600Y-60350000D02*
X118609600Y-60863000D01*
X118649600Y-57811000D02*
X118649600Y-58270000D01*
X118649600Y-60350000D02*
X118649600Y-60809000D01*
X118689600Y-57867000D02*
X118689600Y-58270000D01*
X118689600Y-60350000D02*
X118689600Y-60753000D01*
X118729600Y-57927000D02*
X118729600Y-58270000D01*
X118729600Y-60350000D02*
X118729600Y-60693000D01*
X118769600Y-57991000D02*
X118769600Y-58270000D01*
X118769600Y-60350000D02*
X118769600Y-60629000D01*
X118809600Y-58059000D02*
X118809600Y-58270000D01*
X118809600Y-60350000D02*
X118809600Y-60561000D01*
X118849600Y-58133000D02*
X118849600Y-60487000D01*
X118889600Y-58212000D02*
X118889600Y-60408000D01*
X118929600Y-58299000D02*
X118929600Y-60321000D01*
X118969600Y-58396000D02*
X118969600Y-60224000D01*
X119009600Y-58505000D02*
X119009600Y-60115000D01*
X119049600Y-58633000D02*
X119049600Y-59987000D01*
X119089600Y-58793000D02*
X119089600Y-59827000D01*
X119129600Y-59027000D02*
X119129600Y-59593000D01*
X119149600Y-59310000D02*
G75*
G02*
X113909600Y-59310000I-2620000J0D01*
G01*
X113909600Y-59310000D02*
G75*
G02*
X119149600Y-59310000I2620000J0D01*
G01*
%TO.C,C5*%
X107085025Y-84035000D02*
X107585025Y-84035000D01*
X107335025Y-83785000D02*
X107335025Y-84285000D01*
X109889800Y-82930000D02*
X109889800Y-88090000D01*
X109929800Y-82930000D02*
X109929800Y-88090000D01*
X109969800Y-82931000D02*
X109969800Y-88089000D01*
X110009800Y-82933000D02*
X110009800Y-88087000D01*
X110049800Y-82935000D02*
X110049800Y-88085000D01*
X110089800Y-82938000D02*
X110089800Y-88082000D01*
X110129800Y-82941000D02*
X110129800Y-84470000D01*
X110129800Y-86550000D02*
X110129800Y-88079000D01*
X110169800Y-82945000D02*
X110169800Y-84470000D01*
X110169800Y-86550000D02*
X110169800Y-88075000D01*
X110209800Y-82950000D02*
X110209800Y-84470000D01*
X110209800Y-86550000D02*
X110209800Y-88070000D01*
X110249800Y-82955000D02*
X110249800Y-84470000D01*
X110249800Y-86550000D02*
X110249800Y-88065000D01*
X110289800Y-82961000D02*
X110289800Y-84470000D01*
X110289800Y-86550000D02*
X110289800Y-88059000D01*
X110329800Y-82967000D02*
X110329800Y-84470000D01*
X110329800Y-86550000D02*
X110329800Y-88053000D01*
X110369800Y-82974000D02*
X110369800Y-84470000D01*
X110369800Y-86550000D02*
X110369800Y-88046000D01*
X110409800Y-82982000D02*
X110409800Y-84470000D01*
X110409800Y-86550000D02*
X110409800Y-88038000D01*
X110449800Y-82991000D02*
X110449800Y-84470000D01*
X110449800Y-86550000D02*
X110449800Y-88029000D01*
X110489800Y-83000000D02*
X110489800Y-84470000D01*
X110489800Y-86550000D02*
X110489800Y-88020000D01*
X110529800Y-83009000D02*
X110529800Y-84470000D01*
X110529800Y-86550000D02*
X110529800Y-88011000D01*
X110569800Y-83020000D02*
X110569800Y-84470000D01*
X110569800Y-86550000D02*
X110569800Y-88000000D01*
X110609800Y-83031000D02*
X110609800Y-84470000D01*
X110609800Y-86550000D02*
X110609800Y-87989000D01*
X110649800Y-83043000D02*
X110649800Y-84470000D01*
X110649800Y-86550000D02*
X110649800Y-87977000D01*
X110689800Y-83055000D02*
X110689800Y-84470000D01*
X110689800Y-86550000D02*
X110689800Y-87965000D01*
X110729800Y-83068000D02*
X110729800Y-84470000D01*
X110729800Y-86550000D02*
X110729800Y-87952000D01*
X110769800Y-83082000D02*
X110769800Y-84470000D01*
X110769800Y-86550000D02*
X110769800Y-87938000D01*
X110809800Y-83097000D02*
X110809800Y-84470000D01*
X110809800Y-86550000D02*
X110809800Y-87923000D01*
X110849800Y-83112000D02*
X110849800Y-84470000D01*
X110849800Y-86550000D02*
X110849800Y-87908000D01*
X110889800Y-83128000D02*
X110889800Y-84470000D01*
X110889800Y-86550000D02*
X110889800Y-87892000D01*
X110929800Y-83145000D02*
X110929800Y-84470000D01*
X110929800Y-86550000D02*
X110929800Y-87875000D01*
X110969800Y-83163000D02*
X110969800Y-84470000D01*
X110969800Y-86550000D02*
X110969800Y-87857000D01*
X111009800Y-83181000D02*
X111009800Y-84470000D01*
X111009800Y-86550000D02*
X111009800Y-87839000D01*
X111049800Y-83201000D02*
X111049800Y-84470000D01*
X111049800Y-86550000D02*
X111049800Y-87819000D01*
X111089800Y-83221000D02*
X111089800Y-84470000D01*
X111089800Y-86550000D02*
X111089800Y-87799000D01*
X111129800Y-83242000D02*
X111129800Y-84470000D01*
X111129800Y-86550000D02*
X111129800Y-87778000D01*
X111169800Y-83264000D02*
X111169800Y-84470000D01*
X111169800Y-86550000D02*
X111169800Y-87756000D01*
X111209800Y-83287000D02*
X111209800Y-84470000D01*
X111209800Y-86550000D02*
X111209800Y-87733000D01*
X111249800Y-83311000D02*
X111249800Y-84470000D01*
X111249800Y-86550000D02*
X111249800Y-87709000D01*
X111289800Y-83335000D02*
X111289800Y-84470000D01*
X111289800Y-86550000D02*
X111289800Y-87685000D01*
X111329800Y-83361000D02*
X111329800Y-84470000D01*
X111329800Y-86550000D02*
X111329800Y-87659000D01*
X111369800Y-83388000D02*
X111369800Y-84470000D01*
X111369800Y-86550000D02*
X111369800Y-87632000D01*
X111409800Y-83416000D02*
X111409800Y-84470000D01*
X111409800Y-86550000D02*
X111409800Y-87604000D01*
X111449800Y-83445000D02*
X111449800Y-84470000D01*
X111449800Y-86550000D02*
X111449800Y-87575000D01*
X111489800Y-83475000D02*
X111489800Y-84470000D01*
X111489800Y-86550000D02*
X111489800Y-87545000D01*
X111529800Y-83507000D02*
X111529800Y-84470000D01*
X111529800Y-86550000D02*
X111529800Y-87513000D01*
X111569800Y-83540000D02*
X111569800Y-84470000D01*
X111569800Y-86550000D02*
X111569800Y-87480000D01*
X111609800Y-83574000D02*
X111609800Y-84470000D01*
X111609800Y-86550000D02*
X111609800Y-87446000D01*
X111649800Y-83609000D02*
X111649800Y-84470000D01*
X111649800Y-86550000D02*
X111649800Y-87411000D01*
X111689800Y-83646000D02*
X111689800Y-84470000D01*
X111689800Y-86550000D02*
X111689800Y-87374000D01*
X111729800Y-83685000D02*
X111729800Y-84470000D01*
X111729800Y-86550000D02*
X111729800Y-87335000D01*
X111769800Y-83725000D02*
X111769800Y-84470000D01*
X111769800Y-86550000D02*
X111769800Y-87295000D01*
X111809800Y-83767000D02*
X111809800Y-84470000D01*
X111809800Y-86550000D02*
X111809800Y-87253000D01*
X111849800Y-83811000D02*
X111849800Y-84470000D01*
X111849800Y-86550000D02*
X111849800Y-87209000D01*
X111889800Y-83858000D02*
X111889800Y-84470000D01*
X111889800Y-86550000D02*
X111889800Y-87162000D01*
X111929800Y-83906000D02*
X111929800Y-84470000D01*
X111929800Y-86550000D02*
X111929800Y-87114000D01*
X111969800Y-83957000D02*
X111969800Y-84470000D01*
X111969800Y-86550000D02*
X111969800Y-87063000D01*
X112009800Y-84011000D02*
X112009800Y-84470000D01*
X112009800Y-86550000D02*
X112009800Y-87009000D01*
X112049800Y-84067000D02*
X112049800Y-84470000D01*
X112049800Y-86550000D02*
X112049800Y-86953000D01*
X112089800Y-84127000D02*
X112089800Y-84470000D01*
X112089800Y-86550000D02*
X112089800Y-86893000D01*
X112129800Y-84191000D02*
X112129800Y-84470000D01*
X112129800Y-86550000D02*
X112129800Y-86829000D01*
X112169800Y-84259000D02*
X112169800Y-84470000D01*
X112169800Y-86550000D02*
X112169800Y-86761000D01*
X112209800Y-84333000D02*
X112209800Y-86687000D01*
X112249800Y-84412000D02*
X112249800Y-86608000D01*
X112289800Y-84499000D02*
X112289800Y-86521000D01*
X112329800Y-84596000D02*
X112329800Y-86424000D01*
X112369800Y-84705000D02*
X112369800Y-86315000D01*
X112409800Y-84833000D02*
X112409800Y-86187000D01*
X112449800Y-84993000D02*
X112449800Y-86027000D01*
X112489800Y-85227000D02*
X112489800Y-85793000D01*
X112509800Y-85510000D02*
G75*
G02*
X107269800Y-85510000I-2620000J0D01*
G01*
X107269800Y-85510000D02*
G75*
G02*
X112509800Y-85510000I2620000J0D01*
G01*
%TO.C,R1*%
X154820000Y-56690000D02*
X161360000Y-56690000D01*
X154820000Y-57020000D02*
X154820000Y-56690000D01*
X154820000Y-59100000D02*
X154820000Y-59430000D01*
X154820000Y-59430000D02*
X161360000Y-59430000D01*
X161360000Y-56690000D02*
X161360000Y-57020000D01*
X161360000Y-59430000D02*
X161360000Y-59100000D01*
%TO.C,C4*%
X107085025Y-77485000D02*
X107585025Y-77485000D01*
X107335025Y-77235000D02*
X107335025Y-77735000D01*
X109889800Y-76380000D02*
X109889800Y-81540000D01*
X109929800Y-76380000D02*
X109929800Y-81540000D01*
X109969800Y-76381000D02*
X109969800Y-81539000D01*
X110009800Y-76383000D02*
X110009800Y-81537000D01*
X110049800Y-76385000D02*
X110049800Y-81535000D01*
X110089800Y-76388000D02*
X110089800Y-81532000D01*
X110129800Y-76391000D02*
X110129800Y-77920000D01*
X110129800Y-80000000D02*
X110129800Y-81529000D01*
X110169800Y-76395000D02*
X110169800Y-77920000D01*
X110169800Y-80000000D02*
X110169800Y-81525000D01*
X110209800Y-76400000D02*
X110209800Y-77920000D01*
X110209800Y-80000000D02*
X110209800Y-81520000D01*
X110249800Y-76405000D02*
X110249800Y-77920000D01*
X110249800Y-80000000D02*
X110249800Y-81515000D01*
X110289800Y-76411000D02*
X110289800Y-77920000D01*
X110289800Y-80000000D02*
X110289800Y-81509000D01*
X110329800Y-76417000D02*
X110329800Y-77920000D01*
X110329800Y-80000000D02*
X110329800Y-81503000D01*
X110369800Y-76424000D02*
X110369800Y-77920000D01*
X110369800Y-80000000D02*
X110369800Y-81496000D01*
X110409800Y-76432000D02*
X110409800Y-77920000D01*
X110409800Y-80000000D02*
X110409800Y-81488000D01*
X110449800Y-76441000D02*
X110449800Y-77920000D01*
X110449800Y-80000000D02*
X110449800Y-81479000D01*
X110489800Y-76450000D02*
X110489800Y-77920000D01*
X110489800Y-80000000D02*
X110489800Y-81470000D01*
X110529800Y-76459000D02*
X110529800Y-77920000D01*
X110529800Y-80000000D02*
X110529800Y-81461000D01*
X110569800Y-76470000D02*
X110569800Y-77920000D01*
X110569800Y-80000000D02*
X110569800Y-81450000D01*
X110609800Y-76481000D02*
X110609800Y-77920000D01*
X110609800Y-80000000D02*
X110609800Y-81439000D01*
X110649800Y-76493000D02*
X110649800Y-77920000D01*
X110649800Y-80000000D02*
X110649800Y-81427000D01*
X110689800Y-76505000D02*
X110689800Y-77920000D01*
X110689800Y-80000000D02*
X110689800Y-81415000D01*
X110729800Y-76518000D02*
X110729800Y-77920000D01*
X110729800Y-80000000D02*
X110729800Y-81402000D01*
X110769800Y-76532000D02*
X110769800Y-77920000D01*
X110769800Y-80000000D02*
X110769800Y-81388000D01*
X110809800Y-76547000D02*
X110809800Y-77920000D01*
X110809800Y-80000000D02*
X110809800Y-81373000D01*
X110849800Y-76562000D02*
X110849800Y-77920000D01*
X110849800Y-80000000D02*
X110849800Y-81358000D01*
X110889800Y-76578000D02*
X110889800Y-77920000D01*
X110889800Y-80000000D02*
X110889800Y-81342000D01*
X110929800Y-76595000D02*
X110929800Y-77920000D01*
X110929800Y-80000000D02*
X110929800Y-81325000D01*
X110969800Y-76613000D02*
X110969800Y-77920000D01*
X110969800Y-80000000D02*
X110969800Y-81307000D01*
X111009800Y-76631000D02*
X111009800Y-77920000D01*
X111009800Y-80000000D02*
X111009800Y-81289000D01*
X111049800Y-76651000D02*
X111049800Y-77920000D01*
X111049800Y-80000000D02*
X111049800Y-81269000D01*
X111089800Y-76671000D02*
X111089800Y-77920000D01*
X111089800Y-80000000D02*
X111089800Y-81249000D01*
X111129800Y-76692000D02*
X111129800Y-77920000D01*
X111129800Y-80000000D02*
X111129800Y-81228000D01*
X111169800Y-76714000D02*
X111169800Y-77920000D01*
X111169800Y-80000000D02*
X111169800Y-81206000D01*
X111209800Y-76737000D02*
X111209800Y-77920000D01*
X111209800Y-80000000D02*
X111209800Y-81183000D01*
X111249800Y-76761000D02*
X111249800Y-77920000D01*
X111249800Y-80000000D02*
X111249800Y-81159000D01*
X111289800Y-76785000D02*
X111289800Y-77920000D01*
X111289800Y-80000000D02*
X111289800Y-81135000D01*
X111329800Y-76811000D02*
X111329800Y-77920000D01*
X111329800Y-80000000D02*
X111329800Y-81109000D01*
X111369800Y-76838000D02*
X111369800Y-77920000D01*
X111369800Y-80000000D02*
X111369800Y-81082000D01*
X111409800Y-76866000D02*
X111409800Y-77920000D01*
X111409800Y-80000000D02*
X111409800Y-81054000D01*
X111449800Y-76895000D02*
X111449800Y-77920000D01*
X111449800Y-80000000D02*
X111449800Y-81025000D01*
X111489800Y-76925000D02*
X111489800Y-77920000D01*
X111489800Y-80000000D02*
X111489800Y-80995000D01*
X111529800Y-76957000D02*
X111529800Y-77920000D01*
X111529800Y-80000000D02*
X111529800Y-80963000D01*
X111569800Y-76990000D02*
X111569800Y-77920000D01*
X111569800Y-80000000D02*
X111569800Y-80930000D01*
X111609800Y-77024000D02*
X111609800Y-77920000D01*
X111609800Y-80000000D02*
X111609800Y-80896000D01*
X111649800Y-77059000D02*
X111649800Y-77920000D01*
X111649800Y-80000000D02*
X111649800Y-80861000D01*
X111689800Y-77096000D02*
X111689800Y-77920000D01*
X111689800Y-80000000D02*
X111689800Y-80824000D01*
X111729800Y-77135000D02*
X111729800Y-77920000D01*
X111729800Y-80000000D02*
X111729800Y-80785000D01*
X111769800Y-77175000D02*
X111769800Y-77920000D01*
X111769800Y-80000000D02*
X111769800Y-80745000D01*
X111809800Y-77217000D02*
X111809800Y-77920000D01*
X111809800Y-80000000D02*
X111809800Y-80703000D01*
X111849800Y-77261000D02*
X111849800Y-77920000D01*
X111849800Y-80000000D02*
X111849800Y-80659000D01*
X111889800Y-77308000D02*
X111889800Y-77920000D01*
X111889800Y-80000000D02*
X111889800Y-80612000D01*
X111929800Y-77356000D02*
X111929800Y-77920000D01*
X111929800Y-80000000D02*
X111929800Y-80564000D01*
X111969800Y-77407000D02*
X111969800Y-77920000D01*
X111969800Y-80000000D02*
X111969800Y-80513000D01*
X112009800Y-77461000D02*
X112009800Y-77920000D01*
X112009800Y-80000000D02*
X112009800Y-80459000D01*
X112049800Y-77517000D02*
X112049800Y-77920000D01*
X112049800Y-80000000D02*
X112049800Y-80403000D01*
X112089800Y-77577000D02*
X112089800Y-77920000D01*
X112089800Y-80000000D02*
X112089800Y-80343000D01*
X112129800Y-77641000D02*
X112129800Y-77920000D01*
X112129800Y-80000000D02*
X112129800Y-80279000D01*
X112169800Y-77709000D02*
X112169800Y-77920000D01*
X112169800Y-80000000D02*
X112169800Y-80211000D01*
X112209800Y-77783000D02*
X112209800Y-80137000D01*
X112249800Y-77862000D02*
X112249800Y-80058000D01*
X112289800Y-77949000D02*
X112289800Y-79971000D01*
X112329800Y-78046000D02*
X112329800Y-79874000D01*
X112369800Y-78155000D02*
X112369800Y-79765000D01*
X112409800Y-78283000D02*
X112409800Y-79637000D01*
X112449800Y-78443000D02*
X112449800Y-79477000D01*
X112489800Y-78677000D02*
X112489800Y-79243000D01*
X112509800Y-78960000D02*
G75*
G02*
X107269800Y-78960000I-2620000J0D01*
G01*
X107269800Y-78960000D02*
G75*
G02*
X112509800Y-78960000I2620000J0D01*
G01*
%TO.C,R2*%
X154820000Y-60740000D02*
X161360000Y-60740000D01*
X154820000Y-61070000D02*
X154820000Y-60740000D01*
X154820000Y-63150000D02*
X154820000Y-63480000D01*
X154820000Y-63480000D02*
X161360000Y-63480000D01*
X161360000Y-60740000D02*
X161360000Y-61070000D01*
X161360000Y-63480000D02*
X161360000Y-63150000D01*
%TO.C,D1*%
X109490000Y-97990000D02*
X114930000Y-97990000D01*
X109490000Y-98120000D02*
X109490000Y-97990000D01*
X109490000Y-100800000D02*
X109490000Y-100930000D01*
X109490000Y-100930000D02*
X114930000Y-100930000D01*
X110270000Y-97990000D02*
X110270000Y-100930000D01*
X110390000Y-97990000D02*
X110390000Y-100930000D01*
X110510000Y-97990000D02*
X110510000Y-100930000D01*
X114930000Y-97990000D02*
X114930000Y-98120000D01*
X114930000Y-100930000D02*
X114930000Y-100800000D01*
%TO.C,C7*%
X113724825Y-64385000D02*
X114224825Y-64385000D01*
X113974825Y-64135000D02*
X113974825Y-64635000D01*
X116529600Y-63280000D02*
X116529600Y-68440000D01*
X116569600Y-63280000D02*
X116569600Y-68440000D01*
X116609600Y-63281000D02*
X116609600Y-68439000D01*
X116649600Y-63283000D02*
X116649600Y-68437000D01*
X116689600Y-63285000D02*
X116689600Y-68435000D01*
X116729600Y-63288000D02*
X116729600Y-68432000D01*
X116769600Y-63291000D02*
X116769600Y-64820000D01*
X116769600Y-66900000D02*
X116769600Y-68429000D01*
X116809600Y-63295000D02*
X116809600Y-64820000D01*
X116809600Y-66900000D02*
X116809600Y-68425000D01*
X116849600Y-63300000D02*
X116849600Y-64820000D01*
X116849600Y-66900000D02*
X116849600Y-68420000D01*
X116889600Y-63305000D02*
X116889600Y-64820000D01*
X116889600Y-66900000D02*
X116889600Y-68415000D01*
X116929600Y-63311000D02*
X116929600Y-64820000D01*
X116929600Y-66900000D02*
X116929600Y-68409000D01*
X116969600Y-63317000D02*
X116969600Y-64820000D01*
X116969600Y-66900000D02*
X116969600Y-68403000D01*
X117009600Y-63324000D02*
X117009600Y-64820000D01*
X117009600Y-66900000D02*
X117009600Y-68396000D01*
X117049600Y-63332000D02*
X117049600Y-64820000D01*
X117049600Y-66900000D02*
X117049600Y-68388000D01*
X117089600Y-63341000D02*
X117089600Y-64820000D01*
X117089600Y-66900000D02*
X117089600Y-68379000D01*
X117129600Y-63350000D02*
X117129600Y-64820000D01*
X117129600Y-66900000D02*
X117129600Y-68370000D01*
X117169600Y-63359000D02*
X117169600Y-64820000D01*
X117169600Y-66900000D02*
X117169600Y-68361000D01*
X117209600Y-63370000D02*
X117209600Y-64820000D01*
X117209600Y-66900000D02*
X117209600Y-68350000D01*
X117249600Y-63381000D02*
X117249600Y-64820000D01*
X117249600Y-66900000D02*
X117249600Y-68339000D01*
X117289600Y-63393000D02*
X117289600Y-64820000D01*
X117289600Y-66900000D02*
X117289600Y-68327000D01*
X117329600Y-63405000D02*
X117329600Y-64820000D01*
X117329600Y-66900000D02*
X117329600Y-68315000D01*
X117369600Y-63418000D02*
X117369600Y-64820000D01*
X117369600Y-66900000D02*
X117369600Y-68302000D01*
X117409600Y-63432000D02*
X117409600Y-64820000D01*
X117409600Y-66900000D02*
X117409600Y-68288000D01*
X117449600Y-63447000D02*
X117449600Y-64820000D01*
X117449600Y-66900000D02*
X117449600Y-68273000D01*
X117489600Y-63462000D02*
X117489600Y-64820000D01*
X117489600Y-66900000D02*
X117489600Y-68258000D01*
X117529600Y-63478000D02*
X117529600Y-64820000D01*
X117529600Y-66900000D02*
X117529600Y-68242000D01*
X117569600Y-63495000D02*
X117569600Y-64820000D01*
X117569600Y-66900000D02*
X117569600Y-68225000D01*
X117609600Y-63513000D02*
X117609600Y-64820000D01*
X117609600Y-66900000D02*
X117609600Y-68207000D01*
X117649600Y-63531000D02*
X117649600Y-64820000D01*
X117649600Y-66900000D02*
X117649600Y-68189000D01*
X117689600Y-63551000D02*
X117689600Y-64820000D01*
X117689600Y-66900000D02*
X117689600Y-68169000D01*
X117729600Y-63571000D02*
X117729600Y-64820000D01*
X117729600Y-66900000D02*
X117729600Y-68149000D01*
X117769600Y-63592000D02*
X117769600Y-64820000D01*
X117769600Y-66900000D02*
X117769600Y-68128000D01*
X117809600Y-63614000D02*
X117809600Y-64820000D01*
X117809600Y-66900000D02*
X117809600Y-68106000D01*
X117849600Y-63637000D02*
X117849600Y-64820000D01*
X117849600Y-66900000D02*
X117849600Y-68083000D01*
X117889600Y-63661000D02*
X117889600Y-64820000D01*
X117889600Y-66900000D02*
X117889600Y-68059000D01*
X117929600Y-63685000D02*
X117929600Y-64820000D01*
X117929600Y-66900000D02*
X117929600Y-68035000D01*
X117969600Y-63711000D02*
X117969600Y-64820000D01*
X117969600Y-66900000D02*
X117969600Y-68009000D01*
X118009600Y-63738000D02*
X118009600Y-64820000D01*
X118009600Y-66900000D02*
X118009600Y-67982000D01*
X118049600Y-63766000D02*
X118049600Y-64820000D01*
X118049600Y-66900000D02*
X118049600Y-67954000D01*
X118089600Y-63795000D02*
X118089600Y-64820000D01*
X118089600Y-66900000D02*
X118089600Y-67925000D01*
X118129600Y-63825000D02*
X118129600Y-64820000D01*
X118129600Y-66900000D02*
X118129600Y-67895000D01*
X118169600Y-63857000D02*
X118169600Y-64820000D01*
X118169600Y-66900000D02*
X118169600Y-67863000D01*
X118209600Y-63890000D02*
X118209600Y-64820000D01*
X118209600Y-66900000D02*
X118209600Y-67830000D01*
X118249600Y-63924000D02*
X118249600Y-64820000D01*
X118249600Y-66900000D02*
X118249600Y-67796000D01*
X118289600Y-63959000D02*
X118289600Y-64820000D01*
X118289600Y-66900000D02*
X118289600Y-67761000D01*
X118329600Y-63996000D02*
X118329600Y-64820000D01*
X118329600Y-66900000D02*
X118329600Y-67724000D01*
X118369600Y-64035000D02*
X118369600Y-64820000D01*
X118369600Y-66900000D02*
X118369600Y-67685000D01*
X118409600Y-64075000D02*
X118409600Y-64820000D01*
X118409600Y-66900000D02*
X118409600Y-67645000D01*
X118449600Y-64117000D02*
X118449600Y-64820000D01*
X118449600Y-66900000D02*
X118449600Y-67603000D01*
X118489600Y-64161000D02*
X118489600Y-64820000D01*
X118489600Y-66900000D02*
X118489600Y-67559000D01*
X118529600Y-64208000D02*
X118529600Y-64820000D01*
X118529600Y-66900000D02*
X118529600Y-67512000D01*
X118569600Y-64256000D02*
X118569600Y-64820000D01*
X118569600Y-66900000D02*
X118569600Y-67464000D01*
X118609600Y-64307000D02*
X118609600Y-64820000D01*
X118609600Y-66900000D02*
X118609600Y-67413000D01*
X118649600Y-64361000D02*
X118649600Y-64820000D01*
X118649600Y-66900000D02*
X118649600Y-67359000D01*
X118689600Y-64417000D02*
X118689600Y-64820000D01*
X118689600Y-66900000D02*
X118689600Y-67303000D01*
X118729600Y-64477000D02*
X118729600Y-64820000D01*
X118729600Y-66900000D02*
X118729600Y-67243000D01*
X118769600Y-64541000D02*
X118769600Y-64820000D01*
X118769600Y-66900000D02*
X118769600Y-67179000D01*
X118809600Y-64609000D02*
X118809600Y-64820000D01*
X118809600Y-66900000D02*
X118809600Y-67111000D01*
X118849600Y-64683000D02*
X118849600Y-67037000D01*
X118889600Y-64762000D02*
X118889600Y-66958000D01*
X118929600Y-64849000D02*
X118929600Y-66871000D01*
X118969600Y-64946000D02*
X118969600Y-66774000D01*
X119009600Y-65055000D02*
X119009600Y-66665000D01*
X119049600Y-65183000D02*
X119049600Y-66537000D01*
X119089600Y-65343000D02*
X119089600Y-66377000D01*
X119129600Y-65577000D02*
X119129600Y-66143000D01*
X119149600Y-65860000D02*
G75*
G02*
X113909600Y-65860000I-2620000J0D01*
G01*
X113909600Y-65860000D02*
G75*
G02*
X119149600Y-65860000I2620000J0D01*
G01*
%TO.C,Q1*%
X151270000Y-84830000D02*
X161490000Y-84830000D01*
X151270000Y-86210000D02*
X161490000Y-86210000D01*
X151270000Y-89450000D02*
X151270000Y-84830000D01*
X154530000Y-84830000D02*
X154530000Y-86210000D01*
X158230000Y-84830000D02*
X158230000Y-86210000D01*
X161490000Y-84830000D02*
X161490000Y-89450000D01*
X161490000Y-89450000D02*
X151270000Y-89450000D01*
%TO.C,C9*%
X113724825Y-77485000D02*
X114224825Y-77485000D01*
X113974825Y-77235000D02*
X113974825Y-77735000D01*
X116529600Y-76380000D02*
X116529600Y-81540000D01*
X116569600Y-76380000D02*
X116569600Y-81540000D01*
X116609600Y-76381000D02*
X116609600Y-81539000D01*
X116649600Y-76383000D02*
X116649600Y-81537000D01*
X116689600Y-76385000D02*
X116689600Y-81535000D01*
X116729600Y-76388000D02*
X116729600Y-81532000D01*
X116769600Y-76391000D02*
X116769600Y-77920000D01*
X116769600Y-80000000D02*
X116769600Y-81529000D01*
X116809600Y-76395000D02*
X116809600Y-77920000D01*
X116809600Y-80000000D02*
X116809600Y-81525000D01*
X116849600Y-76400000D02*
X116849600Y-77920000D01*
X116849600Y-80000000D02*
X116849600Y-81520000D01*
X116889600Y-76405000D02*
X116889600Y-77920000D01*
X116889600Y-80000000D02*
X116889600Y-81515000D01*
X116929600Y-76411000D02*
X116929600Y-77920000D01*
X116929600Y-80000000D02*
X116929600Y-81509000D01*
X116969600Y-76417000D02*
X116969600Y-77920000D01*
X116969600Y-80000000D02*
X116969600Y-81503000D01*
X117009600Y-76424000D02*
X117009600Y-77920000D01*
X117009600Y-80000000D02*
X117009600Y-81496000D01*
X117049600Y-76432000D02*
X117049600Y-77920000D01*
X117049600Y-80000000D02*
X117049600Y-81488000D01*
X117089600Y-76441000D02*
X117089600Y-77920000D01*
X117089600Y-80000000D02*
X117089600Y-81479000D01*
X117129600Y-76450000D02*
X117129600Y-77920000D01*
X117129600Y-80000000D02*
X117129600Y-81470000D01*
X117169600Y-76459000D02*
X117169600Y-77920000D01*
X117169600Y-80000000D02*
X117169600Y-81461000D01*
X117209600Y-76470000D02*
X117209600Y-77920000D01*
X117209600Y-80000000D02*
X117209600Y-81450000D01*
X117249600Y-76481000D02*
X117249600Y-77920000D01*
X117249600Y-80000000D02*
X117249600Y-81439000D01*
X117289600Y-76493000D02*
X117289600Y-77920000D01*
X117289600Y-80000000D02*
X117289600Y-81427000D01*
X117329600Y-76505000D02*
X117329600Y-77920000D01*
X117329600Y-80000000D02*
X117329600Y-81415000D01*
X117369600Y-76518000D02*
X117369600Y-77920000D01*
X117369600Y-80000000D02*
X117369600Y-81402000D01*
X117409600Y-76532000D02*
X117409600Y-77920000D01*
X117409600Y-80000000D02*
X117409600Y-81388000D01*
X117449600Y-76547000D02*
X117449600Y-77920000D01*
X117449600Y-80000000D02*
X117449600Y-81373000D01*
X117489600Y-76562000D02*
X117489600Y-77920000D01*
X117489600Y-80000000D02*
X117489600Y-81358000D01*
X117529600Y-76578000D02*
X117529600Y-77920000D01*
X117529600Y-80000000D02*
X117529600Y-81342000D01*
X117569600Y-76595000D02*
X117569600Y-77920000D01*
X117569600Y-80000000D02*
X117569600Y-81325000D01*
X117609600Y-76613000D02*
X117609600Y-77920000D01*
X117609600Y-80000000D02*
X117609600Y-81307000D01*
X117649600Y-76631000D02*
X117649600Y-77920000D01*
X117649600Y-80000000D02*
X117649600Y-81289000D01*
X117689600Y-76651000D02*
X117689600Y-77920000D01*
X117689600Y-80000000D02*
X117689600Y-81269000D01*
X117729600Y-76671000D02*
X117729600Y-77920000D01*
X117729600Y-80000000D02*
X117729600Y-81249000D01*
X117769600Y-76692000D02*
X117769600Y-77920000D01*
X117769600Y-80000000D02*
X117769600Y-81228000D01*
X117809600Y-76714000D02*
X117809600Y-77920000D01*
X117809600Y-80000000D02*
X117809600Y-81206000D01*
X117849600Y-76737000D02*
X117849600Y-77920000D01*
X117849600Y-80000000D02*
X117849600Y-81183000D01*
X117889600Y-76761000D02*
X117889600Y-77920000D01*
X117889600Y-80000000D02*
X117889600Y-81159000D01*
X117929600Y-76785000D02*
X117929600Y-77920000D01*
X117929600Y-80000000D02*
X117929600Y-81135000D01*
X117969600Y-76811000D02*
X117969600Y-77920000D01*
X117969600Y-80000000D02*
X117969600Y-81109000D01*
X118009600Y-76838000D02*
X118009600Y-77920000D01*
X118009600Y-80000000D02*
X118009600Y-81082000D01*
X118049600Y-76866000D02*
X118049600Y-77920000D01*
X118049600Y-80000000D02*
X118049600Y-81054000D01*
X118089600Y-76895000D02*
X118089600Y-77920000D01*
X118089600Y-80000000D02*
X118089600Y-81025000D01*
X118129600Y-76925000D02*
X118129600Y-77920000D01*
X118129600Y-80000000D02*
X118129600Y-80995000D01*
X118169600Y-76957000D02*
X118169600Y-77920000D01*
X118169600Y-80000000D02*
X118169600Y-80963000D01*
X118209600Y-76990000D02*
X118209600Y-77920000D01*
X118209600Y-80000000D02*
X118209600Y-80930000D01*
X118249600Y-77024000D02*
X118249600Y-77920000D01*
X118249600Y-80000000D02*
X118249600Y-80896000D01*
X118289600Y-77059000D02*
X118289600Y-77920000D01*
X118289600Y-80000000D02*
X118289600Y-80861000D01*
X118329600Y-77096000D02*
X118329600Y-77920000D01*
X118329600Y-80000000D02*
X118329600Y-80824000D01*
X118369600Y-77135000D02*
X118369600Y-77920000D01*
X118369600Y-80000000D02*
X118369600Y-80785000D01*
X118409600Y-77175000D02*
X118409600Y-77920000D01*
X118409600Y-80000000D02*
X118409600Y-80745000D01*
X118449600Y-77217000D02*
X118449600Y-77920000D01*
X118449600Y-80000000D02*
X118449600Y-80703000D01*
X118489600Y-77261000D02*
X118489600Y-77920000D01*
X118489600Y-80000000D02*
X118489600Y-80659000D01*
X118529600Y-77308000D02*
X118529600Y-77920000D01*
X118529600Y-80000000D02*
X118529600Y-80612000D01*
X118569600Y-77356000D02*
X118569600Y-77920000D01*
X118569600Y-80000000D02*
X118569600Y-80564000D01*
X118609600Y-77407000D02*
X118609600Y-77920000D01*
X118609600Y-80000000D02*
X118609600Y-80513000D01*
X118649600Y-77461000D02*
X118649600Y-77920000D01*
X118649600Y-80000000D02*
X118649600Y-80459000D01*
X118689600Y-77517000D02*
X118689600Y-77920000D01*
X118689600Y-80000000D02*
X118689600Y-80403000D01*
X118729600Y-77577000D02*
X118729600Y-77920000D01*
X118729600Y-80000000D02*
X118729600Y-80343000D01*
X118769600Y-77641000D02*
X118769600Y-77920000D01*
X118769600Y-80000000D02*
X118769600Y-80279000D01*
X118809600Y-77709000D02*
X118809600Y-77920000D01*
X118809600Y-80000000D02*
X118809600Y-80211000D01*
X118849600Y-77783000D02*
X118849600Y-80137000D01*
X118889600Y-77862000D02*
X118889600Y-80058000D01*
X118929600Y-77949000D02*
X118929600Y-79971000D01*
X118969600Y-78046000D02*
X118969600Y-79874000D01*
X119009600Y-78155000D02*
X119009600Y-79765000D01*
X119049600Y-78283000D02*
X119049600Y-79637000D01*
X119089600Y-78443000D02*
X119089600Y-79477000D01*
X119129600Y-78677000D02*
X119129600Y-79243000D01*
X119149600Y-78960000D02*
G75*
G02*
X113909600Y-78960000I-2620000J0D01*
G01*
X113909600Y-78960000D02*
G75*
G02*
X119149600Y-78960000I2620000J0D01*
G01*
%TO.C,R3*%
X154820000Y-64790000D02*
X161360000Y-64790000D01*
X154820000Y-65120000D02*
X154820000Y-64790000D01*
X154820000Y-67200000D02*
X154820000Y-67530000D01*
X154820000Y-67530000D02*
X161360000Y-67530000D01*
X161360000Y-64790000D02*
X161360000Y-65120000D01*
X161360000Y-67530000D02*
X161360000Y-67200000D01*
%TO.C,Y1*%
X109875000Y-106755000D02*
X116125000Y-106755000D01*
X116125000Y-111625000D02*
X109875000Y-111625000D01*
X109875000Y-111625000D02*
G75*
G02*
X109875000Y-106755000I0J2435000D01*
G01*
X116125000Y-106755000D02*
G75*
G02*
X116125000Y-111625000I0J-2435000D01*
G01*
%TO.C,U4*%
X151270000Y-90780000D02*
X161490000Y-90780000D01*
X151270000Y-92160000D02*
X161490000Y-92160000D01*
X151270000Y-95400000D02*
X151270000Y-90780000D01*
X154530000Y-90780000D02*
X154530000Y-92160000D01*
X158230000Y-90780000D02*
X158230000Y-92160000D01*
X161490000Y-90780000D02*
X161490000Y-95400000D01*
X161490000Y-95400000D02*
X151270000Y-95400000D01*
%TO.C,R6*%
X154820000Y-76940000D02*
X161360000Y-76940000D01*
X154820000Y-77270000D02*
X154820000Y-76940000D01*
X154820000Y-79350000D02*
X154820000Y-79680000D01*
X154820000Y-79680000D02*
X161360000Y-79680000D01*
X161360000Y-76940000D02*
X161360000Y-77270000D01*
X161360000Y-79680000D02*
X161360000Y-79350000D01*
%TO.C,R5*%
X154820000Y-72890000D02*
X161360000Y-72890000D01*
X154820000Y-73220000D02*
X154820000Y-72890000D01*
X154820000Y-75300000D02*
X154820000Y-75630000D01*
X154820000Y-75630000D02*
X161360000Y-75630000D01*
X161360000Y-72890000D02*
X161360000Y-73220000D01*
X161360000Y-75630000D02*
X161360000Y-75300000D01*
%TO.C,D4*%
X144300000Y-93825000D02*
X144300000Y-96915000D01*
X144300000Y-93825170D02*
G75*
G02*
X149850000Y-95370000I2560000J-1544830D01*
G01*
X149850000Y-95370000D02*
G75*
G02*
X144300000Y-96914830I-2990000J0D01*
G01*
X149360000Y-95370000D02*
G75*
G02*
X144360000Y-95370000I-2500000J0D01*
G01*
X144360000Y-95370000D02*
G75*
G02*
X149360000Y-95370000I2500000J0D01*
G01*
%TO.C,C8*%
X113724825Y-70935000D02*
X114224825Y-70935000D01*
X113974825Y-70685000D02*
X113974825Y-71185000D01*
X116529600Y-69830000D02*
X116529600Y-74990000D01*
X116569600Y-69830000D02*
X116569600Y-74990000D01*
X116609600Y-69831000D02*
X116609600Y-74989000D01*
X116649600Y-69833000D02*
X116649600Y-74987000D01*
X116689600Y-69835000D02*
X116689600Y-74985000D01*
X116729600Y-69838000D02*
X116729600Y-74982000D01*
X116769600Y-69841000D02*
X116769600Y-71370000D01*
X116769600Y-73450000D02*
X116769600Y-74979000D01*
X116809600Y-69845000D02*
X116809600Y-71370000D01*
X116809600Y-73450000D02*
X116809600Y-74975000D01*
X116849600Y-69850000D02*
X116849600Y-71370000D01*
X116849600Y-73450000D02*
X116849600Y-74970000D01*
X116889600Y-69855000D02*
X116889600Y-71370000D01*
X116889600Y-73450000D02*
X116889600Y-74965000D01*
X116929600Y-69861000D02*
X116929600Y-71370000D01*
X116929600Y-73450000D02*
X116929600Y-74959000D01*
X116969600Y-69867000D02*
X116969600Y-71370000D01*
X116969600Y-73450000D02*
X116969600Y-74953000D01*
X117009600Y-69874000D02*
X117009600Y-71370000D01*
X117009600Y-73450000D02*
X117009600Y-74946000D01*
X117049600Y-69882000D02*
X117049600Y-71370000D01*
X117049600Y-73450000D02*
X117049600Y-74938000D01*
X117089600Y-69891000D02*
X117089600Y-71370000D01*
X117089600Y-73450000D02*
X117089600Y-74929000D01*
X117129600Y-69900000D02*
X117129600Y-71370000D01*
X117129600Y-73450000D02*
X117129600Y-74920000D01*
X117169600Y-69909000D02*
X117169600Y-71370000D01*
X117169600Y-73450000D02*
X117169600Y-74911000D01*
X117209600Y-69920000D02*
X117209600Y-71370000D01*
X117209600Y-73450000D02*
X117209600Y-74900000D01*
X117249600Y-69931000D02*
X117249600Y-71370000D01*
X117249600Y-73450000D02*
X117249600Y-74889000D01*
X117289600Y-69943000D02*
X117289600Y-71370000D01*
X117289600Y-73450000D02*
X117289600Y-74877000D01*
X117329600Y-69955000D02*
X117329600Y-71370000D01*
X117329600Y-73450000D02*
X117329600Y-74865000D01*
X117369600Y-69968000D02*
X117369600Y-71370000D01*
X117369600Y-73450000D02*
X117369600Y-74852000D01*
X117409600Y-69982000D02*
X117409600Y-71370000D01*
X117409600Y-73450000D02*
X117409600Y-74838000D01*
X117449600Y-69997000D02*
X117449600Y-71370000D01*
X117449600Y-73450000D02*
X117449600Y-74823000D01*
X117489600Y-70012000D02*
X117489600Y-71370000D01*
X117489600Y-73450000D02*
X117489600Y-74808000D01*
X117529600Y-70028000D02*
X117529600Y-71370000D01*
X117529600Y-73450000D02*
X117529600Y-74792000D01*
X117569600Y-70045000D02*
X117569600Y-71370000D01*
X117569600Y-73450000D02*
X117569600Y-74775000D01*
X117609600Y-70063000D02*
X117609600Y-71370000D01*
X117609600Y-73450000D02*
X117609600Y-74757000D01*
X117649600Y-70081000D02*
X117649600Y-71370000D01*
X117649600Y-73450000D02*
X117649600Y-74739000D01*
X117689600Y-70101000D02*
X117689600Y-71370000D01*
X117689600Y-73450000D02*
X117689600Y-74719000D01*
X117729600Y-70121000D02*
X117729600Y-71370000D01*
X117729600Y-73450000D02*
X117729600Y-74699000D01*
X117769600Y-70142000D02*
X117769600Y-71370000D01*
X117769600Y-73450000D02*
X117769600Y-74678000D01*
X117809600Y-70164000D02*
X117809600Y-71370000D01*
X117809600Y-73450000D02*
X117809600Y-74656000D01*
X117849600Y-70187000D02*
X117849600Y-71370000D01*
X117849600Y-73450000D02*
X117849600Y-74633000D01*
X117889600Y-70211000D02*
X117889600Y-71370000D01*
X117889600Y-73450000D02*
X117889600Y-74609000D01*
X117929600Y-70235000D02*
X117929600Y-71370000D01*
X117929600Y-73450000D02*
X117929600Y-74585000D01*
X117969600Y-70261000D02*
X117969600Y-71370000D01*
X117969600Y-73450000D02*
X117969600Y-74559000D01*
X118009600Y-70288000D02*
X118009600Y-71370000D01*
X118009600Y-73450000D02*
X118009600Y-74532000D01*
X118049600Y-70316000D02*
X118049600Y-71370000D01*
X118049600Y-73450000D02*
X118049600Y-74504000D01*
X118089600Y-70345000D02*
X118089600Y-71370000D01*
X118089600Y-73450000D02*
X118089600Y-74475000D01*
X118129600Y-70375000D02*
X118129600Y-71370000D01*
X118129600Y-73450000D02*
X118129600Y-74445000D01*
X118169600Y-70407000D02*
X118169600Y-71370000D01*
X118169600Y-73450000D02*
X118169600Y-74413000D01*
X118209600Y-70440000D02*
X118209600Y-71370000D01*
X118209600Y-73450000D02*
X118209600Y-74380000D01*
X118249600Y-70474000D02*
X118249600Y-71370000D01*
X118249600Y-73450000D02*
X118249600Y-74346000D01*
X118289600Y-70509000D02*
X118289600Y-71370000D01*
X118289600Y-73450000D02*
X118289600Y-74311000D01*
X118329600Y-70546000D02*
X118329600Y-71370000D01*
X118329600Y-73450000D02*
X118329600Y-74274000D01*
X118369600Y-70585000D02*
X118369600Y-71370000D01*
X118369600Y-73450000D02*
X118369600Y-74235000D01*
X118409600Y-70625000D02*
X118409600Y-71370000D01*
X118409600Y-73450000D02*
X118409600Y-74195000D01*
X118449600Y-70667000D02*
X118449600Y-71370000D01*
X118449600Y-73450000D02*
X118449600Y-74153000D01*
X118489600Y-70711000D02*
X118489600Y-71370000D01*
X118489600Y-73450000D02*
X118489600Y-74109000D01*
X118529600Y-70758000D02*
X118529600Y-71370000D01*
X118529600Y-73450000D02*
X118529600Y-74062000D01*
X118569600Y-70806000D02*
X118569600Y-71370000D01*
X118569600Y-73450000D02*
X118569600Y-74014000D01*
X118609600Y-70857000D02*
X118609600Y-71370000D01*
X118609600Y-73450000D02*
X118609600Y-73963000D01*
X118649600Y-70911000D02*
X118649600Y-71370000D01*
X118649600Y-73450000D02*
X118649600Y-73909000D01*
X118689600Y-70967000D02*
X118689600Y-71370000D01*
X118689600Y-73450000D02*
X118689600Y-73853000D01*
X118729600Y-71027000D02*
X118729600Y-71370000D01*
X118729600Y-73450000D02*
X118729600Y-73793000D01*
X118769600Y-71091000D02*
X118769600Y-71370000D01*
X118769600Y-73450000D02*
X118769600Y-73729000D01*
X118809600Y-71159000D02*
X118809600Y-71370000D01*
X118809600Y-73450000D02*
X118809600Y-73661000D01*
X118849600Y-71233000D02*
X118849600Y-73587000D01*
X118889600Y-71312000D02*
X118889600Y-73508000D01*
X118929600Y-71399000D02*
X118929600Y-73421000D01*
X118969600Y-71496000D02*
X118969600Y-73324000D01*
X119009600Y-71605000D02*
X119009600Y-73215000D01*
X119049600Y-71733000D02*
X119049600Y-73087000D01*
X119089600Y-71893000D02*
X119089600Y-72927000D01*
X119129600Y-72127000D02*
X119129600Y-72693000D01*
X119149600Y-72410000D02*
G75*
G02*
X113909600Y-72410000I-2620000J0D01*
G01*
X113909600Y-72410000D02*
G75*
G02*
X119149600Y-72410000I2620000J0D01*
G01*
%TO.C,D3*%
X109490000Y-102240000D02*
X114930000Y-102240000D01*
X109490000Y-102370000D02*
X109490000Y-102240000D01*
X109490000Y-105050000D02*
X109490000Y-105180000D01*
X109490000Y-105180000D02*
X114930000Y-105180000D01*
X110270000Y-102240000D02*
X110270000Y-105180000D01*
X110390000Y-102240000D02*
X110390000Y-105180000D01*
X110510000Y-102240000D02*
X110510000Y-105180000D01*
X114930000Y-102240000D02*
X114930000Y-102370000D01*
X114930000Y-105180000D02*
X114930000Y-105050000D01*
%TO.C,Q2*%
X155930000Y-111350000D02*
X159530000Y-111350000D01*
X155891522Y-111338478D02*
G75*
G02*
X157730000Y-106899999I1838478J1838478D01*
G01*
X157730000Y-106900000D02*
G75*
G02*
X159568478Y-111338478I0J-2600000D01*
G01*
%TO.C,U1*%
X145190000Y-101170000D02*
X145465000Y-101170000D01*
X145190000Y-101445000D02*
X145190000Y-101170000D01*
X145190000Y-108390000D02*
X145190000Y-108115000D01*
X145465000Y-108390000D02*
X145190000Y-108390000D01*
X152135000Y-101170000D02*
X152410000Y-101170000D01*
X152410000Y-101170000D02*
X152410000Y-101445000D01*
X152410000Y-108115000D02*
X152410000Y-108390000D01*
X152410000Y-108390000D02*
X152135000Y-108390000D01*
X144550000Y-101440000D02*
X144210000Y-100970000D01*
X144890000Y-100970000D01*
X144550000Y-101440000D01*
G36*
X144550000Y-101440000D02*
G01*
X144210000Y-100970000D01*
X144890000Y-100970000D01*
X144550000Y-101440000D01*
G37*
%TO.C,U2*%
X122540000Y-84880000D02*
X122540000Y-105320000D01*
X122540000Y-105320000D02*
X127840000Y-105320000D01*
X124190000Y-84880000D02*
X122540000Y-84880000D01*
X127840000Y-84880000D02*
X126190000Y-84880000D01*
X127840000Y-105320000D02*
X127840000Y-84880000D01*
X126190000Y-84880000D02*
G75*
G02*
X124190000Y-84880000I-1000000J0D01*
G01*
%TO.C,J3*%
X131480000Y-95185000D02*
X142220000Y-95185000D01*
X131480000Y-98805000D02*
X132720000Y-98805000D01*
X131480000Y-99805000D02*
X132720000Y-99805000D01*
X131480000Y-101105000D02*
X132720000Y-101105000D01*
X131480000Y-103225000D02*
X131480000Y-95185000D01*
X134300000Y-103225000D02*
X131480000Y-103225000D01*
X136480000Y-98805000D02*
X137788000Y-98805000D01*
X136480000Y-99805000D02*
X137788000Y-99805000D01*
X136480000Y-101105000D02*
X139057000Y-101105000D01*
X140143000Y-101105000D02*
X142220000Y-101105000D01*
X141412000Y-98805000D02*
X142220000Y-98805000D01*
X141412000Y-99805000D02*
X142220000Y-99805000D01*
X142220000Y-95185000D02*
X142220000Y-103225000D01*
X142220000Y-103225000D02*
X134900000Y-103225000D01*
X135040000Y-103835000D02*
X134160000Y-103835000D01*
X134600000Y-103225000D01*
X135040000Y-103835000D01*
G36*
X135040000Y-103835000D02*
G01*
X134160000Y-103835000D01*
X134600000Y-103225000D01*
X135040000Y-103835000D01*
G37*
%TO.C,J2*%
X120900000Y-81700000D02*
X120900000Y-62500000D01*
X141675000Y-82594338D02*
X141925000Y-82161325D01*
X141925000Y-82161325D02*
X142175000Y-82594338D01*
X142175000Y-82594338D02*
X141675000Y-82594338D01*
X151870000Y-62500000D02*
X151870000Y-81700000D01*
X151870000Y-81700000D02*
X120900000Y-81700000D01*
%TO.C,M1*%
X155390000Y-100020000D02*
X156770000Y-100020000D01*
X155390000Y-101400000D02*
X155390000Y-100020000D01*
X155390000Y-102670000D02*
X155390000Y-105320000D01*
X155390000Y-102670000D02*
X158150000Y-102670000D01*
X155390000Y-105320000D02*
X158150000Y-105320000D01*
X158150000Y-102670000D02*
X158150000Y-105320000D01*
%TO.C,C2*%
X107085025Y-64385000D02*
X107585025Y-64385000D01*
X107335025Y-64135000D02*
X107335025Y-64635000D01*
X109889800Y-63280000D02*
X109889800Y-68440000D01*
X109929800Y-63280000D02*
X109929800Y-68440000D01*
X109969800Y-63281000D02*
X109969800Y-68439000D01*
X110009800Y-63283000D02*
X110009800Y-68437000D01*
X110049800Y-63285000D02*
X110049800Y-68435000D01*
X110089800Y-63288000D02*
X110089800Y-68432000D01*
X110129800Y-63291000D02*
X110129800Y-64820000D01*
X110129800Y-66900000D02*
X110129800Y-68429000D01*
X110169800Y-63295000D02*
X110169800Y-64820000D01*
X110169800Y-66900000D02*
X110169800Y-68425000D01*
X110209800Y-63300000D02*
X110209800Y-64820000D01*
X110209800Y-66900000D02*
X110209800Y-68420000D01*
X110249800Y-63305000D02*
X110249800Y-64820000D01*
X110249800Y-66900000D02*
X110249800Y-68415000D01*
X110289800Y-63311000D02*
X110289800Y-64820000D01*
X110289800Y-66900000D02*
X110289800Y-68409000D01*
X110329800Y-63317000D02*
X110329800Y-64820000D01*
X110329800Y-66900000D02*
X110329800Y-68403000D01*
X110369800Y-63324000D02*
X110369800Y-64820000D01*
X110369800Y-66900000D02*
X110369800Y-68396000D01*
X110409800Y-63332000D02*
X110409800Y-64820000D01*
X110409800Y-66900000D02*
X110409800Y-68388000D01*
X110449800Y-63341000D02*
X110449800Y-64820000D01*
X110449800Y-66900000D02*
X110449800Y-68379000D01*
X110489800Y-63350000D02*
X110489800Y-64820000D01*
X110489800Y-66900000D02*
X110489800Y-68370000D01*
X110529800Y-63359000D02*
X110529800Y-64820000D01*
X110529800Y-66900000D02*
X110529800Y-68361000D01*
X110569800Y-63370000D02*
X110569800Y-64820000D01*
X110569800Y-66900000D02*
X110569800Y-68350000D01*
X110609800Y-63381000D02*
X110609800Y-64820000D01*
X110609800Y-66900000D02*
X110609800Y-68339000D01*
X110649800Y-63393000D02*
X110649800Y-64820000D01*
X110649800Y-66900000D02*
X110649800Y-68327000D01*
X110689800Y-63405000D02*
X110689800Y-64820000D01*
X110689800Y-66900000D02*
X110689800Y-68315000D01*
X110729800Y-63418000D02*
X110729800Y-64820000D01*
X110729800Y-66900000D02*
X110729800Y-68302000D01*
X110769800Y-63432000D02*
X110769800Y-64820000D01*
X110769800Y-66900000D02*
X110769800Y-68288000D01*
X110809800Y-63447000D02*
X110809800Y-64820000D01*
X110809800Y-66900000D02*
X110809800Y-68273000D01*
X110849800Y-63462000D02*
X110849800Y-64820000D01*
X110849800Y-66900000D02*
X110849800Y-68258000D01*
X110889800Y-63478000D02*
X110889800Y-64820000D01*
X110889800Y-66900000D02*
X110889800Y-68242000D01*
X110929800Y-63495000D02*
X110929800Y-64820000D01*
X110929800Y-66900000D02*
X110929800Y-68225000D01*
X110969800Y-63513000D02*
X110969800Y-64820000D01*
X110969800Y-66900000D02*
X110969800Y-68207000D01*
X111009800Y-63531000D02*
X111009800Y-64820000D01*
X111009800Y-66900000D02*
X111009800Y-68189000D01*
X111049800Y-63551000D02*
X111049800Y-64820000D01*
X111049800Y-66900000D02*
X111049800Y-68169000D01*
X111089800Y-63571000D02*
X111089800Y-64820000D01*
X111089800Y-66900000D02*
X111089800Y-68149000D01*
X111129800Y-63592000D02*
X111129800Y-64820000D01*
X111129800Y-66900000D02*
X111129800Y-68128000D01*
X111169800Y-63614000D02*
X111169800Y-64820000D01*
X111169800Y-66900000D02*
X111169800Y-68106000D01*
X111209800Y-63637000D02*
X111209800Y-64820000D01*
X111209800Y-66900000D02*
X111209800Y-68083000D01*
X111249800Y-63661000D02*
X111249800Y-64820000D01*
X111249800Y-66900000D02*
X111249800Y-68059000D01*
X111289800Y-63685000D02*
X111289800Y-64820000D01*
X111289800Y-66900000D02*
X111289800Y-68035000D01*
X111329800Y-63711000D02*
X111329800Y-64820000D01*
X111329800Y-66900000D02*
X111329800Y-68009000D01*
X111369800Y-63738000D02*
X111369800Y-64820000D01*
X111369800Y-66900000D02*
X111369800Y-67982000D01*
X111409800Y-63766000D02*
X111409800Y-64820000D01*
X111409800Y-66900000D02*
X111409800Y-67954000D01*
X111449800Y-63795000D02*
X111449800Y-64820000D01*
X111449800Y-66900000D02*
X111449800Y-67925000D01*
X111489800Y-63825000D02*
X111489800Y-64820000D01*
X111489800Y-66900000D02*
X111489800Y-67895000D01*
X111529800Y-63857000D02*
X111529800Y-64820000D01*
X111529800Y-66900000D02*
X111529800Y-67863000D01*
X111569800Y-63890000D02*
X111569800Y-64820000D01*
X111569800Y-66900000D02*
X111569800Y-67830000D01*
X111609800Y-63924000D02*
X111609800Y-64820000D01*
X111609800Y-66900000D02*
X111609800Y-67796000D01*
X111649800Y-63959000D02*
X111649800Y-64820000D01*
X111649800Y-66900000D02*
X111649800Y-67761000D01*
X111689800Y-63996000D02*
X111689800Y-64820000D01*
X111689800Y-66900000D02*
X111689800Y-67724000D01*
X111729800Y-64035000D02*
X111729800Y-64820000D01*
X111729800Y-66900000D02*
X111729800Y-67685000D01*
X111769800Y-64075000D02*
X111769800Y-64820000D01*
X111769800Y-66900000D02*
X111769800Y-67645000D01*
X111809800Y-64117000D02*
X111809800Y-64820000D01*
X111809800Y-66900000D02*
X111809800Y-67603000D01*
X111849800Y-64161000D02*
X111849800Y-64820000D01*
X111849800Y-66900000D02*
X111849800Y-67559000D01*
X111889800Y-64208000D02*
X111889800Y-64820000D01*
X111889800Y-66900000D02*
X111889800Y-67512000D01*
X111929800Y-64256000D02*
X111929800Y-64820000D01*
X111929800Y-66900000D02*
X111929800Y-67464000D01*
X111969800Y-64307000D02*
X111969800Y-64820000D01*
X111969800Y-66900000D02*
X111969800Y-67413000D01*
X112009800Y-64361000D02*
X112009800Y-64820000D01*
X112009800Y-66900000D02*
X112009800Y-67359000D01*
X112049800Y-64417000D02*
X112049800Y-64820000D01*
X112049800Y-66900000D02*
X112049800Y-67303000D01*
X112089800Y-64477000D02*
X112089800Y-64820000D01*
X112089800Y-66900000D02*
X112089800Y-67243000D01*
X112129800Y-64541000D02*
X112129800Y-64820000D01*
X112129800Y-66900000D02*
X112129800Y-67179000D01*
X112169800Y-64609000D02*
X112169800Y-64820000D01*
X112169800Y-66900000D02*
X112169800Y-67111000D01*
X112209800Y-64683000D02*
X112209800Y-67037000D01*
X112249800Y-64762000D02*
X112249800Y-66958000D01*
X112289800Y-64849000D02*
X112289800Y-66871000D01*
X112329800Y-64946000D02*
X112329800Y-66774000D01*
X112369800Y-65055000D02*
X112369800Y-66665000D01*
X112409800Y-65183000D02*
X112409800Y-66537000D01*
X112449800Y-65343000D02*
X112449800Y-66377000D01*
X112489800Y-65577000D02*
X112489800Y-66143000D01*
X112509800Y-65860000D02*
G75*
G02*
X107269800Y-65860000I-2620000J0D01*
G01*
X107269800Y-65860000D02*
G75*
G02*
X112509800Y-65860000I2620000J0D01*
G01*
%TO.C,D2*%
X144300000Y-86355000D02*
X144300000Y-89445000D01*
X144300000Y-86355170D02*
G75*
G02*
X149850000Y-87900000I2560000J-1544830D01*
G01*
X149850000Y-87900000D02*
G75*
G02*
X144300000Y-89444830I-2990000J0D01*
G01*
X149360000Y-87900000D02*
G75*
G02*
X144360000Y-87900000I-2500000J0D01*
G01*
X144360000Y-87900000D02*
G75*
G02*
X149360000Y-87900000I2500000J0D01*
G01*
%TO.C,C1*%
X107085025Y-57835000D02*
X107585025Y-57835000D01*
X107335025Y-57585000D02*
X107335025Y-58085000D01*
X109889800Y-56730000D02*
X109889800Y-61890000D01*
X109929800Y-56730000D02*
X109929800Y-61890000D01*
X109969800Y-56731000D02*
X109969800Y-61889000D01*
X110009800Y-56733000D02*
X110009800Y-61887000D01*
X110049800Y-56735000D02*
X110049800Y-61885000D01*
X110089800Y-56738000D02*
X110089800Y-61882000D01*
X110129800Y-56741000D02*
X110129800Y-58270000D01*
X110129800Y-60350000D02*
X110129800Y-61879000D01*
X110169800Y-56745000D02*
X110169800Y-58270000D01*
X110169800Y-60350000D02*
X110169800Y-61875000D01*
X110209800Y-56750000D02*
X110209800Y-58270000D01*
X110209800Y-60350000D02*
X110209800Y-61870000D01*
X110249800Y-56755000D02*
X110249800Y-58270000D01*
X110249800Y-60350000D02*
X110249800Y-61865000D01*
X110289800Y-56761000D02*
X110289800Y-58270000D01*
X110289800Y-60350000D02*
X110289800Y-61859000D01*
X110329800Y-56767000D02*
X110329800Y-58270000D01*
X110329800Y-60350000D02*
X110329800Y-61853000D01*
X110369800Y-56774000D02*
X110369800Y-58270000D01*
X110369800Y-60350000D02*
X110369800Y-61846000D01*
X110409800Y-56782000D02*
X110409800Y-58270000D01*
X110409800Y-60350000D02*
X110409800Y-61838000D01*
X110449800Y-56791000D02*
X110449800Y-58270000D01*
X110449800Y-60350000D02*
X110449800Y-61829000D01*
X110489800Y-56800000D02*
X110489800Y-58270000D01*
X110489800Y-60350000D02*
X110489800Y-61820000D01*
X110529800Y-56809000D02*
X110529800Y-58270000D01*
X110529800Y-60350000D02*
X110529800Y-61811000D01*
X110569800Y-56820000D02*
X110569800Y-58270000D01*
X110569800Y-60350000D02*
X110569800Y-61800000D01*
X110609800Y-56831000D02*
X110609800Y-58270000D01*
X110609800Y-60350000D02*
X110609800Y-61789000D01*
X110649800Y-56843000D02*
X110649800Y-58270000D01*
X110649800Y-60350000D02*
X110649800Y-61777000D01*
X110689800Y-56855000D02*
X110689800Y-58270000D01*
X110689800Y-60350000D02*
X110689800Y-61765000D01*
X110729800Y-56868000D02*
X110729800Y-58270000D01*
X110729800Y-60350000D02*
X110729800Y-61752000D01*
X110769800Y-56882000D02*
X110769800Y-58270000D01*
X110769800Y-60350000D02*
X110769800Y-61738000D01*
X110809800Y-56897000D02*
X110809800Y-58270000D01*
X110809800Y-60350000D02*
X110809800Y-61723000D01*
X110849800Y-56912000D02*
X110849800Y-58270000D01*
X110849800Y-60350000D02*
X110849800Y-61708000D01*
X110889800Y-56928000D02*
X110889800Y-58270000D01*
X110889800Y-60350000D02*
X110889800Y-61692000D01*
X110929800Y-56945000D02*
X110929800Y-58270000D01*
X110929800Y-60350000D02*
X110929800Y-61675000D01*
X110969800Y-56963000D02*
X110969800Y-58270000D01*
X110969800Y-60350000D02*
X110969800Y-61657000D01*
X111009800Y-56981000D02*
X111009800Y-58270000D01*
X111009800Y-60350000D02*
X111009800Y-61639000D01*
X111049800Y-57001000D02*
X111049800Y-58270000D01*
X111049800Y-60350000D02*
X111049800Y-61619000D01*
X111089800Y-57021000D02*
X111089800Y-58270000D01*
X111089800Y-60350000D02*
X111089800Y-61599000D01*
X111129800Y-57042000D02*
X111129800Y-58270000D01*
X111129800Y-60350000D02*
X111129800Y-61578000D01*
X111169800Y-57064000D02*
X111169800Y-58270000D01*
X111169800Y-60350000D02*
X111169800Y-61556000D01*
X111209800Y-57087000D02*
X111209800Y-58270000D01*
X111209800Y-60350000D02*
X111209800Y-61533000D01*
X111249800Y-57111000D02*
X111249800Y-58270000D01*
X111249800Y-60350000D02*
X111249800Y-61509000D01*
X111289800Y-57135000D02*
X111289800Y-58270000D01*
X111289800Y-60350000D02*
X111289800Y-61485000D01*
X111329800Y-57161000D02*
X111329800Y-58270000D01*
X111329800Y-60350000D02*
X111329800Y-61459000D01*
X111369800Y-57188000D02*
X111369800Y-58270000D01*
X111369800Y-60350000D02*
X111369800Y-61432000D01*
X111409800Y-57216000D02*
X111409800Y-58270000D01*
X111409800Y-60350000D02*
X111409800Y-61404000D01*
X111449800Y-57245000D02*
X111449800Y-58270000D01*
X111449800Y-60350000D02*
X111449800Y-61375000D01*
X111489800Y-57275000D02*
X111489800Y-58270000D01*
X111489800Y-60350000D02*
X111489800Y-61345000D01*
X111529800Y-57307000D02*
X111529800Y-58270000D01*
X111529800Y-60350000D02*
X111529800Y-61313000D01*
X111569800Y-57340000D02*
X111569800Y-58270000D01*
X111569800Y-60350000D02*
X111569800Y-61280000D01*
X111609800Y-57374000D02*
X111609800Y-58270000D01*
X111609800Y-60350000D02*
X111609800Y-61246000D01*
X111649800Y-57409000D02*
X111649800Y-58270000D01*
X111649800Y-60350000D02*
X111649800Y-61211000D01*
X111689800Y-57446000D02*
X111689800Y-58270000D01*
X111689800Y-60350000D02*
X111689800Y-61174000D01*
X111729800Y-57485000D02*
X111729800Y-58270000D01*
X111729800Y-60350000D02*
X111729800Y-61135000D01*
X111769800Y-57525000D02*
X111769800Y-58270000D01*
X111769800Y-60350000D02*
X111769800Y-61095000D01*
X111809800Y-57567000D02*
X111809800Y-58270000D01*
X111809800Y-60350000D02*
X111809800Y-61053000D01*
X111849800Y-57611000D02*
X111849800Y-58270000D01*
X111849800Y-60350000D02*
X111849800Y-61009000D01*
X111889800Y-57658000D02*
X111889800Y-58270000D01*
X111889800Y-60350000D02*
X111889800Y-60962000D01*
X111929800Y-57706000D02*
X111929800Y-58270000D01*
X111929800Y-60350000D02*
X111929800Y-60914000D01*
X111969800Y-57757000D02*
X111969800Y-58270000D01*
X111969800Y-60350000D02*
X111969800Y-60863000D01*
X112009800Y-57811000D02*
X112009800Y-58270000D01*
X112009800Y-60350000D02*
X112009800Y-60809000D01*
X112049800Y-57867000D02*
X112049800Y-58270000D01*
X112049800Y-60350000D02*
X112049800Y-60753000D01*
X112089800Y-57927000D02*
X112089800Y-58270000D01*
X112089800Y-60350000D02*
X112089800Y-60693000D01*
X112129800Y-57991000D02*
X112129800Y-58270000D01*
X112129800Y-60350000D02*
X112129800Y-60629000D01*
X112169800Y-58059000D02*
X112169800Y-58270000D01*
X112169800Y-60350000D02*
X112169800Y-60561000D01*
X112209800Y-58133000D02*
X112209800Y-60487000D01*
X112249800Y-58212000D02*
X112249800Y-60408000D01*
X112289800Y-58299000D02*
X112289800Y-60321000D01*
X112329800Y-58396000D02*
X112329800Y-60224000D01*
X112369800Y-58505000D02*
X112369800Y-60115000D01*
X112409800Y-58633000D02*
X112409800Y-59987000D01*
X112449800Y-58793000D02*
X112449800Y-59827000D01*
X112489800Y-59027000D02*
X112489800Y-59593000D01*
X112509800Y-59310000D02*
G75*
G02*
X107269800Y-59310000I-2620000J0D01*
G01*
X107269800Y-59310000D02*
G75*
G02*
X112509800Y-59310000I2620000J0D01*
G01*
%TO.C,J1*%
X131480000Y-85070000D02*
X142220000Y-85070000D01*
X131480000Y-88690000D02*
X132720000Y-88690000D01*
X131480000Y-89690000D02*
X132720000Y-89690000D01*
X131480000Y-90990000D02*
X132720000Y-90990000D01*
X131480000Y-93110000D02*
X131480000Y-85070000D01*
X134300000Y-93110000D02*
X131480000Y-93110000D01*
X136480000Y-88690000D02*
X137788000Y-88690000D01*
X136480000Y-89690000D02*
X137788000Y-89690000D01*
X136480000Y-90990000D02*
X139057000Y-90990000D01*
X140143000Y-90990000D02*
X142220000Y-90990000D01*
X141412000Y-88690000D02*
X142220000Y-88690000D01*
X141412000Y-89690000D02*
X142220000Y-89690000D01*
X142220000Y-85070000D02*
X142220000Y-93110000D01*
X142220000Y-93110000D02*
X134900000Y-93110000D01*
X135040000Y-93720000D02*
X134160000Y-93720000D01*
X134600000Y-93110000D01*
X135040000Y-93720000D01*
G36*
X135040000Y-93720000D02*
G01*
X134160000Y-93720000D01*
X134600000Y-93110000D01*
X135040000Y-93720000D01*
G37*
%TO.C,SW1*%
X108300000Y-92310000D02*
X108300000Y-93810000D01*
X109550000Y-96310000D02*
X114050000Y-96310000D01*
X114050000Y-89810000D02*
X109550000Y-89810000D01*
X115300000Y-93810000D02*
X115300000Y-92310000D01*
%TO.C,R4*%
X154820000Y-68840000D02*
X161360000Y-68840000D01*
X154820000Y-69170000D02*
X154820000Y-68840000D01*
X154820000Y-71250000D02*
X154820000Y-71580000D01*
X154820000Y-71580000D02*
X161360000Y-71580000D01*
X161360000Y-68840000D02*
X161360000Y-69170000D01*
X161360000Y-71580000D02*
X161360000Y-71250000D01*
%TO.C,C3*%
X107085025Y-70935000D02*
X107585025Y-70935000D01*
X107335025Y-70685000D02*
X107335025Y-71185000D01*
X109889800Y-69830000D02*
X109889800Y-74990000D01*
X109929800Y-69830000D02*
X109929800Y-74990000D01*
X109969800Y-69831000D02*
X109969800Y-74989000D01*
X110009800Y-69833000D02*
X110009800Y-74987000D01*
X110049800Y-69835000D02*
X110049800Y-74985000D01*
X110089800Y-69838000D02*
X110089800Y-74982000D01*
X110129800Y-69841000D02*
X110129800Y-71370000D01*
X110129800Y-73450000D02*
X110129800Y-74979000D01*
X110169800Y-69845000D02*
X110169800Y-71370000D01*
X110169800Y-73450000D02*
X110169800Y-74975000D01*
X110209800Y-69850000D02*
X110209800Y-71370000D01*
X110209800Y-73450000D02*
X110209800Y-74970000D01*
X110249800Y-69855000D02*
X110249800Y-71370000D01*
X110249800Y-73450000D02*
X110249800Y-74965000D01*
X110289800Y-69861000D02*
X110289800Y-71370000D01*
X110289800Y-73450000D02*
X110289800Y-74959000D01*
X110329800Y-69867000D02*
X110329800Y-71370000D01*
X110329800Y-73450000D02*
X110329800Y-74953000D01*
X110369800Y-69874000D02*
X110369800Y-71370000D01*
X110369800Y-73450000D02*
X110369800Y-74946000D01*
X110409800Y-69882000D02*
X110409800Y-71370000D01*
X110409800Y-73450000D02*
X110409800Y-74938000D01*
X110449800Y-69891000D02*
X110449800Y-71370000D01*
X110449800Y-73450000D02*
X110449800Y-74929000D01*
X110489800Y-69900000D02*
X110489800Y-71370000D01*
X110489800Y-73450000D02*
X110489800Y-74920000D01*
X110529800Y-69909000D02*
X110529800Y-71370000D01*
X110529800Y-73450000D02*
X110529800Y-74911000D01*
X110569800Y-69920000D02*
X110569800Y-71370000D01*
X110569800Y-73450000D02*
X110569800Y-74900000D01*
X110609800Y-69931000D02*
X110609800Y-71370000D01*
X110609800Y-73450000D02*
X110609800Y-74889000D01*
X110649800Y-69943000D02*
X110649800Y-71370000D01*
X110649800Y-73450000D02*
X110649800Y-74877000D01*
X110689800Y-69955000D02*
X110689800Y-71370000D01*
X110689800Y-73450000D02*
X110689800Y-74865000D01*
X110729800Y-69968000D02*
X110729800Y-71370000D01*
X110729800Y-73450000D02*
X110729800Y-74852000D01*
X110769800Y-69982000D02*
X110769800Y-71370000D01*
X110769800Y-73450000D02*
X110769800Y-74838000D01*
X110809800Y-69997000D02*
X110809800Y-71370000D01*
X110809800Y-73450000D02*
X110809800Y-74823000D01*
X110849800Y-70012000D02*
X110849800Y-71370000D01*
X110849800Y-73450000D02*
X110849800Y-74808000D01*
X110889800Y-70028000D02*
X110889800Y-71370000D01*
X110889800Y-73450000D02*
X110889800Y-74792000D01*
X110929800Y-70045000D02*
X110929800Y-71370000D01*
X110929800Y-73450000D02*
X110929800Y-74775000D01*
X110969800Y-70063000D02*
X110969800Y-71370000D01*
X110969800Y-73450000D02*
X110969800Y-74757000D01*
X111009800Y-70081000D02*
X111009800Y-71370000D01*
X111009800Y-73450000D02*
X111009800Y-74739000D01*
X111049800Y-70101000D02*
X111049800Y-71370000D01*
X111049800Y-73450000D02*
X111049800Y-74719000D01*
X111089800Y-70121000D02*
X111089800Y-71370000D01*
X111089800Y-73450000D02*
X111089800Y-74699000D01*
X111129800Y-70142000D02*
X111129800Y-71370000D01*
X111129800Y-73450000D02*
X111129800Y-74678000D01*
X111169800Y-70164000D02*
X111169800Y-71370000D01*
X111169800Y-73450000D02*
X111169800Y-74656000D01*
X111209800Y-70187000D02*
X111209800Y-71370000D01*
X111209800Y-73450000D02*
X111209800Y-74633000D01*
X111249800Y-70211000D02*
X111249800Y-71370000D01*
X111249800Y-73450000D02*
X111249800Y-74609000D01*
X111289800Y-70235000D02*
X111289800Y-71370000D01*
X111289800Y-73450000D02*
X111289800Y-74585000D01*
X111329800Y-70261000D02*
X111329800Y-71370000D01*
X111329800Y-73450000D02*
X111329800Y-74559000D01*
X111369800Y-70288000D02*
X111369800Y-71370000D01*
X111369800Y-73450000D02*
X111369800Y-74532000D01*
X111409800Y-70316000D02*
X111409800Y-71370000D01*
X111409800Y-73450000D02*
X111409800Y-74504000D01*
X111449800Y-70345000D02*
X111449800Y-71370000D01*
X111449800Y-73450000D02*
X111449800Y-74475000D01*
X111489800Y-70375000D02*
X111489800Y-71370000D01*
X111489800Y-73450000D02*
X111489800Y-74445000D01*
X111529800Y-70407000D02*
X111529800Y-71370000D01*
X111529800Y-73450000D02*
X111529800Y-74413000D01*
X111569800Y-70440000D02*
X111569800Y-71370000D01*
X111569800Y-73450000D02*
X111569800Y-74380000D01*
X111609800Y-70474000D02*
X111609800Y-71370000D01*
X111609800Y-73450000D02*
X111609800Y-74346000D01*
X111649800Y-70509000D02*
X111649800Y-71370000D01*
X111649800Y-73450000D02*
X111649800Y-74311000D01*
X111689800Y-70546000D02*
X111689800Y-71370000D01*
X111689800Y-73450000D02*
X111689800Y-74274000D01*
X111729800Y-70585000D02*
X111729800Y-71370000D01*
X111729800Y-73450000D02*
X111729800Y-74235000D01*
X111769800Y-70625000D02*
X111769800Y-71370000D01*
X111769800Y-73450000D02*
X111769800Y-74195000D01*
X111809800Y-70667000D02*
X111809800Y-71370000D01*
X111809800Y-73450000D02*
X111809800Y-74153000D01*
X111849800Y-70711000D02*
X111849800Y-71370000D01*
X111849800Y-73450000D02*
X111849800Y-74109000D01*
X111889800Y-70758000D02*
X111889800Y-71370000D01*
X111889800Y-73450000D02*
X111889800Y-74062000D01*
X111929800Y-70806000D02*
X111929800Y-71370000D01*
X111929800Y-73450000D02*
X111929800Y-74014000D01*
X111969800Y-70857000D02*
X111969800Y-71370000D01*
X111969800Y-73450000D02*
X111969800Y-73963000D01*
X112009800Y-70911000D02*
X112009800Y-71370000D01*
X112009800Y-73450000D02*
X112009800Y-73909000D01*
X112049800Y-70967000D02*
X112049800Y-71370000D01*
X112049800Y-73450000D02*
X112049800Y-73853000D01*
X112089800Y-71027000D02*
X112089800Y-71370000D01*
X112089800Y-73450000D02*
X112089800Y-73793000D01*
X112129800Y-71091000D02*
X112129800Y-71370000D01*
X112129800Y-73450000D02*
X112129800Y-73729000D01*
X112169800Y-71159000D02*
X112169800Y-71370000D01*
X112169800Y-73450000D02*
X112169800Y-73661000D01*
X112209800Y-71233000D02*
X112209800Y-73587000D01*
X112249800Y-71312000D02*
X112249800Y-73508000D01*
X112289800Y-71399000D02*
X112289800Y-73421000D01*
X112329800Y-71496000D02*
X112329800Y-73324000D01*
X112369800Y-71605000D02*
X112369800Y-73215000D01*
X112409800Y-71733000D02*
X112409800Y-73087000D01*
X112449800Y-71893000D02*
X112449800Y-72927000D01*
X112489800Y-72127000D02*
X112489800Y-72693000D01*
X112509800Y-72410000D02*
G75*
G02*
X107269800Y-72410000I-2620000J0D01*
G01*
X107269800Y-72410000D02*
G75*
G02*
X112509800Y-72410000I2620000J0D01*
G01*
%TO.C,C10*%
X113724825Y-84035000D02*
X114224825Y-84035000D01*
X113974825Y-83785000D02*
X113974825Y-84285000D01*
X116529600Y-82930000D02*
X116529600Y-88090000D01*
X116569600Y-82930000D02*
X116569600Y-88090000D01*
X116609600Y-82931000D02*
X116609600Y-88089000D01*
X116649600Y-82933000D02*
X116649600Y-88087000D01*
X116689600Y-82935000D02*
X116689600Y-88085000D01*
X116729600Y-82938000D02*
X116729600Y-88082000D01*
X116769600Y-82941000D02*
X116769600Y-84470000D01*
X116769600Y-86550000D02*
X116769600Y-88079000D01*
X116809600Y-82945000D02*
X116809600Y-84470000D01*
X116809600Y-86550000D02*
X116809600Y-88075000D01*
X116849600Y-82950000D02*
X116849600Y-84470000D01*
X116849600Y-86550000D02*
X116849600Y-88070000D01*
X116889600Y-82955000D02*
X116889600Y-84470000D01*
X116889600Y-86550000D02*
X116889600Y-88065000D01*
X116929600Y-82961000D02*
X116929600Y-84470000D01*
X116929600Y-86550000D02*
X116929600Y-88059000D01*
X116969600Y-82967000D02*
X116969600Y-84470000D01*
X116969600Y-86550000D02*
X116969600Y-88053000D01*
X117009600Y-82974000D02*
X117009600Y-84470000D01*
X117009600Y-86550000D02*
X117009600Y-88046000D01*
X117049600Y-82982000D02*
X117049600Y-84470000D01*
X117049600Y-86550000D02*
X117049600Y-88038000D01*
X117089600Y-82991000D02*
X117089600Y-84470000D01*
X117089600Y-86550000D02*
X117089600Y-88029000D01*
X117129600Y-83000000D02*
X117129600Y-84470000D01*
X117129600Y-86550000D02*
X117129600Y-88020000D01*
X117169600Y-83009000D02*
X117169600Y-84470000D01*
X117169600Y-86550000D02*
X117169600Y-88011000D01*
X117209600Y-83020000D02*
X117209600Y-84470000D01*
X117209600Y-86550000D02*
X117209600Y-88000000D01*
X117249600Y-83031000D02*
X117249600Y-84470000D01*
X117249600Y-86550000D02*
X117249600Y-87989000D01*
X117289600Y-83043000D02*
X117289600Y-84470000D01*
X117289600Y-86550000D02*
X117289600Y-87977000D01*
X117329600Y-83055000D02*
X117329600Y-84470000D01*
X117329600Y-86550000D02*
X117329600Y-87965000D01*
X117369600Y-83068000D02*
X117369600Y-84470000D01*
X117369600Y-86550000D02*
X117369600Y-87952000D01*
X117409600Y-83082000D02*
X117409600Y-84470000D01*
X117409600Y-86550000D02*
X117409600Y-87938000D01*
X117449600Y-83097000D02*
X117449600Y-84470000D01*
X117449600Y-86550000D02*
X117449600Y-87923000D01*
X117489600Y-83112000D02*
X117489600Y-84470000D01*
X117489600Y-86550000D02*
X117489600Y-87908000D01*
X117529600Y-83128000D02*
X117529600Y-84470000D01*
X117529600Y-86550000D02*
X117529600Y-87892000D01*
X117569600Y-83145000D02*
X117569600Y-84470000D01*
X117569600Y-86550000D02*
X117569600Y-87875000D01*
X117609600Y-83163000D02*
X117609600Y-84470000D01*
X117609600Y-86550000D02*
X117609600Y-87857000D01*
X117649600Y-83181000D02*
X117649600Y-84470000D01*
X117649600Y-86550000D02*
X117649600Y-87839000D01*
X117689600Y-83201000D02*
X117689600Y-84470000D01*
X117689600Y-86550000D02*
X117689600Y-87819000D01*
X117729600Y-83221000D02*
X117729600Y-84470000D01*
X117729600Y-86550000D02*
X117729600Y-87799000D01*
X117769600Y-83242000D02*
X117769600Y-84470000D01*
X117769600Y-86550000D02*
X117769600Y-87778000D01*
X117809600Y-83264000D02*
X117809600Y-84470000D01*
X117809600Y-86550000D02*
X117809600Y-87756000D01*
X117849600Y-83287000D02*
X117849600Y-84470000D01*
X117849600Y-86550000D02*
X117849600Y-87733000D01*
X117889600Y-83311000D02*
X117889600Y-84470000D01*
X117889600Y-86550000D02*
X117889600Y-87709000D01*
X117929600Y-83335000D02*
X117929600Y-84470000D01*
X117929600Y-86550000D02*
X117929600Y-87685000D01*
X117969600Y-83361000D02*
X117969600Y-84470000D01*
X117969600Y-86550000D02*
X117969600Y-87659000D01*
X118009600Y-83388000D02*
X118009600Y-84470000D01*
X118009600Y-86550000D02*
X118009600Y-87632000D01*
X118049600Y-83416000D02*
X118049600Y-84470000D01*
X118049600Y-86550000D02*
X118049600Y-87604000D01*
X118089600Y-83445000D02*
X118089600Y-84470000D01*
X118089600Y-86550000D02*
X118089600Y-87575000D01*
X118129600Y-83475000D02*
X118129600Y-84470000D01*
X118129600Y-86550000D02*
X118129600Y-87545000D01*
X118169600Y-83507000D02*
X118169600Y-84470000D01*
X118169600Y-86550000D02*
X118169600Y-87513000D01*
X118209600Y-83540000D02*
X118209600Y-84470000D01*
X118209600Y-86550000D02*
X118209600Y-87480000D01*
X118249600Y-83574000D02*
X118249600Y-84470000D01*
X118249600Y-86550000D02*
X118249600Y-87446000D01*
X118289600Y-83609000D02*
X118289600Y-84470000D01*
X118289600Y-86550000D02*
X118289600Y-87411000D01*
X118329600Y-83646000D02*
X118329600Y-84470000D01*
X118329600Y-86550000D02*
X118329600Y-87374000D01*
X118369600Y-83685000D02*
X118369600Y-84470000D01*
X118369600Y-86550000D02*
X118369600Y-87335000D01*
X118409600Y-83725000D02*
X118409600Y-84470000D01*
X118409600Y-86550000D02*
X118409600Y-87295000D01*
X118449600Y-83767000D02*
X118449600Y-84470000D01*
X118449600Y-86550000D02*
X118449600Y-87253000D01*
X118489600Y-83811000D02*
X118489600Y-84470000D01*
X118489600Y-86550000D02*
X118489600Y-87209000D01*
X118529600Y-83858000D02*
X118529600Y-84470000D01*
X118529600Y-86550000D02*
X118529600Y-87162000D01*
X118569600Y-83906000D02*
X118569600Y-84470000D01*
X118569600Y-86550000D02*
X118569600Y-87114000D01*
X118609600Y-83957000D02*
X118609600Y-84470000D01*
X118609600Y-86550000D02*
X118609600Y-87063000D01*
X118649600Y-84011000D02*
X118649600Y-84470000D01*
X118649600Y-86550000D02*
X118649600Y-87009000D01*
X118689600Y-84067000D02*
X118689600Y-84470000D01*
X118689600Y-86550000D02*
X118689600Y-86953000D01*
X118729600Y-84127000D02*
X118729600Y-84470000D01*
X118729600Y-86550000D02*
X118729600Y-86893000D01*
X118769600Y-84191000D02*
X118769600Y-84470000D01*
X118769600Y-86550000D02*
X118769600Y-86829000D01*
X118809600Y-84259000D02*
X118809600Y-84470000D01*
X118809600Y-86550000D02*
X118809600Y-86761000D01*
X118849600Y-84333000D02*
X118849600Y-86687000D01*
X118889600Y-84412000D02*
X118889600Y-86608000D01*
X118929600Y-84499000D02*
X118929600Y-86521000D01*
X118969600Y-84596000D02*
X118969600Y-86424000D01*
X119009600Y-84705000D02*
X119009600Y-86315000D01*
X119049600Y-84833000D02*
X119049600Y-86187000D01*
X119089600Y-84993000D02*
X119089600Y-86027000D01*
X119129600Y-85227000D02*
X119129600Y-85793000D01*
X119149600Y-85510000D02*
G75*
G02*
X113909600Y-85510000I-2620000J0D01*
G01*
X113909600Y-85510000D02*
G75*
G02*
X119149600Y-85510000I2620000J0D01*
G01*
%TD*%
M02*
