%TF.GenerationSoftware,KiCad,Pcbnew,9.0.5*%
%TF.CreationDate,2025-10-23T21:22:06-05:00*%
%TF.ProjectId,detetor de sinal 12v,64657465-746f-4722-9064-652073696e61,rev?*%
%TF.SameCoordinates,Original*%
%TF.FileFunction,Soldermask,Top*%
%TF.FilePolarity,Negative*%
%FSLAX46Y46*%
G04 Gerber Fmt 4.6, Leading zero omitted, Abs format (unit mm)*
G04 Created by KiCad (PCBNEW 9.0.5) date 2025-10-23 21:22:06*
%MOMM*%
%LPD*%
G01*
G04 APERTURE LIST*
G04 Aperture macros list*
%AMRoundRect*
0 Rectangle with rounded corners*
0 $1 Rounding radius*
0 $2 $3 $4 $5 $6 $7 $8 $9 X,Y pos of 4 corners*
0 Add a 4 corners polygon primitive as box body*
4,1,4,$2,$3,$4,$5,$6,$7,$8,$9,$2,$3,0*
0 Add four circle primitives for the rounded corners*
1,1,$1+$1,$2,$3*
1,1,$1+$1,$4,$5*
1,1,$1+$1,$6,$7*
1,1,$1+$1,$8,$9*
0 Add four rect primitives between the rounded corners*
20,1,$1+$1,$2,$3,$4,$5,0*
20,1,$1+$1,$4,$5,$6,$7,0*
20,1,$1+$1,$6,$7,$8,$9,0*
20,1,$1+$1,$8,$9,$2,$3,0*%
G04 Aperture macros list end*
%ADD10RoundRect,0.250000X-0.550000X-0.550000X0.550000X-0.550000X0.550000X0.550000X-0.550000X0.550000X0*%
%ADD11C,1.600000*%
%ADD12RoundRect,0.249999X-0.850001X-0.850001X0.850001X-0.850001X0.850001X0.850001X-0.850001X0.850001X0*%
%ADD13C,2.200000*%
%ADD14R,1.905000X2.000000*%
%ADD15O,1.905000X2.000000*%
%ADD16C,1.500000*%
%ADD17R,1.800000X1.800000*%
%ADD18C,1.800000*%
%ADD19R,1.050000X1.500000*%
%ADD20O,1.050000X1.500000*%
%ADD21RoundRect,0.137500X-0.600000X-0.137500X0.600000X-0.137500X0.600000X0.137500X-0.600000X0.137500X0*%
%ADD22RoundRect,0.137500X-0.137500X-0.600000X0.137500X-0.600000X0.137500X0.600000X-0.137500X0.600000X0*%
%ADD23RoundRect,0.250001X-1.149999X-1.149999X1.149999X-1.149999X1.149999X1.149999X-1.149999X1.149999X0*%
%ADD24C,2.800000*%
%ADD25C,4.000000*%
%ADD26R,1.600000X1.600000*%
%ADD27R,1.700000X1.700000*%
%ADD28C,1.700000*%
%ADD29C,2.000000*%
G04 APERTURE END LIST*
D10*
%TO.C,C6*%
X115279600Y-59310000D03*
D11*
X117779600Y-59310000D03*
%TD*%
D10*
%TO.C,C5*%
X108639800Y-85510000D03*
D11*
X111139800Y-85510000D03*
%TD*%
%TO.C,R1*%
X154280000Y-58060000D03*
X161900000Y-58060000D03*
%TD*%
D10*
%TO.C,C4*%
X108639800Y-78960000D03*
D11*
X111139800Y-78960000D03*
%TD*%
%TO.C,R2*%
X154280000Y-62110000D03*
X161900000Y-62110000D03*
%TD*%
D12*
%TO.C,D1*%
X108400000Y-99460000D03*
D13*
X116020000Y-99460000D03*
%TD*%
D10*
%TO.C,C7*%
X115279600Y-65860000D03*
D11*
X117779600Y-65860000D03*
%TD*%
D14*
%TO.C,Q1*%
X153840000Y-88090000D03*
D15*
X156380000Y-88090000D03*
X158920000Y-88090000D03*
%TD*%
D10*
%TO.C,C9*%
X115279600Y-78960000D03*
D11*
X117779600Y-78960000D03*
%TD*%
%TO.C,R3*%
X154280000Y-66160000D03*
X161900000Y-66160000D03*
%TD*%
D16*
%TO.C,Y1*%
X110560000Y-109190000D03*
X115440000Y-109190000D03*
%TD*%
D14*
%TO.C,U4*%
X153840000Y-94040000D03*
D15*
X156380000Y-94040000D03*
X158920000Y-94040000D03*
%TD*%
D11*
%TO.C,R6*%
X154280000Y-78310000D03*
X161900000Y-78310000D03*
%TD*%
%TO.C,R5*%
X154280000Y-74260000D03*
X161900000Y-74260000D03*
%TD*%
D17*
%TO.C,D4*%
X145590000Y-95370000D03*
D18*
X148130000Y-95370000D03*
%TD*%
D10*
%TO.C,C8*%
X115279600Y-72410000D03*
D11*
X117779600Y-72410000D03*
%TD*%
D12*
%TO.C,D3*%
X108400000Y-103710000D03*
D13*
X116020000Y-103710000D03*
%TD*%
D19*
%TO.C,Q2*%
X156460000Y-109500000D03*
D20*
X157730000Y-109500000D03*
X159000000Y-109500000D03*
%TD*%
D21*
%TO.C,U1*%
X144637500Y-101980000D03*
X144637500Y-102780000D03*
X144637500Y-103580000D03*
X144637500Y-104380000D03*
X144637500Y-105180000D03*
X144637500Y-105980000D03*
X144637500Y-106780000D03*
X144637500Y-107580000D03*
D22*
X146000000Y-108942500D03*
X146800000Y-108942500D03*
X147600000Y-108942500D03*
X148400000Y-108942500D03*
X149200000Y-108942500D03*
X150000000Y-108942500D03*
X150800000Y-108942500D03*
X151600000Y-108942500D03*
D21*
X152962500Y-107580000D03*
X152962500Y-106780000D03*
X152962500Y-105980000D03*
X152962500Y-105180000D03*
X152962500Y-104380000D03*
X152962500Y-103580000D03*
X152962500Y-102780000D03*
X152962500Y-101980000D03*
D22*
X151600000Y-100617500D03*
X150800000Y-100617500D03*
X150000000Y-100617500D03*
X149200000Y-100617500D03*
X148400000Y-100617500D03*
X147600000Y-100617500D03*
X146800000Y-100617500D03*
X146000000Y-100617500D03*
%TD*%
D10*
%TO.C,U2*%
X121380000Y-86210000D03*
D11*
X121380000Y-88750000D03*
X121380000Y-91290000D03*
X121380000Y-93830000D03*
X121380000Y-96370000D03*
X121380000Y-98910000D03*
X121380000Y-101450000D03*
X121380000Y-103990000D03*
X129000000Y-103990000D03*
X129000000Y-101450000D03*
X129000000Y-98910000D03*
X129000000Y-96370000D03*
X129000000Y-93830000D03*
X129000000Y-91290000D03*
X129000000Y-88750000D03*
X129000000Y-86210000D03*
%TD*%
D23*
%TO.C,J3*%
X134600000Y-99305000D03*
D24*
X139600000Y-99305000D03*
%TD*%
D25*
%TO.C,J2*%
X148885000Y-78420000D03*
X123885000Y-78420000D03*
D26*
X141925000Y-79840000D03*
D11*
X139155000Y-79840000D03*
X136385000Y-79840000D03*
X133615000Y-79840000D03*
X130845000Y-79840000D03*
X140540000Y-77000000D03*
X137770000Y-77000000D03*
X135000000Y-77000000D03*
X132230000Y-77000000D03*
%TD*%
D27*
%TO.C,M1*%
X156770000Y-101400000D03*
D28*
X156770000Y-103940000D03*
%TD*%
D10*
%TO.C,C2*%
X108639800Y-65860000D03*
D11*
X111139800Y-65860000D03*
%TD*%
D17*
%TO.C,D2*%
X145590000Y-87900000D03*
D18*
X148130000Y-87900000D03*
%TD*%
D10*
%TO.C,C1*%
X108639800Y-59310000D03*
D11*
X111139800Y-59310000D03*
%TD*%
D23*
%TO.C,J1*%
X134600000Y-89190000D03*
D24*
X139600000Y-89190000D03*
%TD*%
D29*
%TO.C,SW1*%
X108550000Y-90810000D03*
X115050000Y-90810000D03*
X108550000Y-95310000D03*
X115050000Y-95310000D03*
%TD*%
D11*
%TO.C,R4*%
X154280000Y-70210000D03*
X161900000Y-70210000D03*
%TD*%
D10*
%TO.C,C3*%
X108639800Y-72410000D03*
D11*
X111139800Y-72410000D03*
%TD*%
D10*
%TO.C,C10*%
X115279600Y-85510000D03*
D11*
X117779600Y-85510000D03*
%TD*%
M02*
