%TF.GenerationSoftware,KiCad,Pcbnew,9.0.5*%
%TF.CreationDate,2025-10-23T21:22:06-05:00*%
%TF.ProjectId,detetor de sinal 12v,64657465-746f-4722-9064-652073696e61,rev?*%
%TF.SameCoordinates,Original*%
%TF.FileFunction,Copper,L1,Top*%
%TF.FilePolarity,Positive*%
%FSLAX46Y46*%
G04 Gerber Fmt 4.6, Leading zero omitted, Abs format (unit mm)*
G04 Created by KiCad (PCBNEW 9.0.5) date 2025-10-23 21:22:06*
%MOMM*%
%LPD*%
G01*
G04 APERTURE LIST*
G04 Aperture macros list*
%AMRoundRect*
0 Rectangle with rounded corners*
0 $1 Rounding radius*
0 $2 $3 $4 $5 $6 $7 $8 $9 X,Y pos of 4 corners*
0 Add a 4 corners polygon primitive as box body*
4,1,4,$2,$3,$4,$5,$6,$7,$8,$9,$2,$3,0*
0 Add four circle primitives for the rounded corners*
1,1,$1+$1,$2,$3*
1,1,$1+$1,$4,$5*
1,1,$1+$1,$6,$7*
1,1,$1+$1,$8,$9*
0 Add four rect primitives between the rounded corners*
20,1,$1+$1,$2,$3,$4,$5,0*
20,1,$1+$1,$4,$5,$6,$7,0*
20,1,$1+$1,$6,$7,$8,$9,0*
20,1,$1+$1,$8,$9,$2,$3,0*%
G04 Aperture macros list end*
%TA.AperFunction,ComponentPad*%
%ADD10RoundRect,0.250000X-0.550000X-0.550000X0.550000X-0.550000X0.550000X0.550000X-0.550000X0.550000X0*%
%TD*%
%TA.AperFunction,ComponentPad*%
%ADD11C,1.600000*%
%TD*%
%TA.AperFunction,ComponentPad*%
%ADD12RoundRect,0.249999X-0.850001X-0.850001X0.850001X-0.850001X0.850001X0.850001X-0.850001X0.850001X0*%
%TD*%
%TA.AperFunction,ComponentPad*%
%ADD13C,2.200000*%
%TD*%
%TA.AperFunction,ComponentPad*%
%ADD14R,1.905000X2.000000*%
%TD*%
%TA.AperFunction,ComponentPad*%
%ADD15O,1.905000X2.000000*%
%TD*%
%TA.AperFunction,ComponentPad*%
%ADD16C,1.500000*%
%TD*%
%TA.AperFunction,ComponentPad*%
%ADD17R,1.800000X1.800000*%
%TD*%
%TA.AperFunction,ComponentPad*%
%ADD18C,1.800000*%
%TD*%
%TA.AperFunction,ComponentPad*%
%ADD19R,1.050000X1.500000*%
%TD*%
%TA.AperFunction,ComponentPad*%
%ADD20O,1.050000X1.500000*%
%TD*%
%TA.AperFunction,SMDPad,CuDef*%
%ADD21RoundRect,0.137500X-0.600000X-0.137500X0.600000X-0.137500X0.600000X0.137500X-0.600000X0.137500X0*%
%TD*%
%TA.AperFunction,SMDPad,CuDef*%
%ADD22RoundRect,0.137500X-0.137500X-0.600000X0.137500X-0.600000X0.137500X0.600000X-0.137500X0.600000X0*%
%TD*%
%TA.AperFunction,ComponentPad*%
%ADD23RoundRect,0.250001X-1.149999X-1.149999X1.149999X-1.149999X1.149999X1.149999X-1.149999X1.149999X0*%
%TD*%
%TA.AperFunction,ComponentPad*%
%ADD24C,2.800000*%
%TD*%
%TA.AperFunction,ComponentPad*%
%ADD25C,4.000000*%
%TD*%
%TA.AperFunction,ComponentPad*%
%ADD26R,1.600000X1.600000*%
%TD*%
%TA.AperFunction,ComponentPad*%
%ADD27R,1.700000X1.700000*%
%TD*%
%TA.AperFunction,ComponentPad*%
%ADD28C,1.700000*%
%TD*%
%TA.AperFunction,ComponentPad*%
%ADD29C,2.000000*%
%TD*%
%TA.AperFunction,ViaPad*%
%ADD30C,0.600000*%
%TD*%
%TA.AperFunction,Conductor*%
%ADD31C,0.200000*%
%TD*%
G04 APERTURE END LIST*
D10*
%TO.P,C6,1*%
%TO.N,Net-(U2-C1+)*%
X115279600Y-59310000D03*
D11*
%TO.P,C6,2*%
%TO.N,Net-(U2-C1-)*%
X117779600Y-59310000D03*
%TD*%
D10*
%TO.P,C5,1*%
%TO.N,Net-(U1-XTAL2{slash}PB7)*%
X108639800Y-85510000D03*
D11*
%TO.P,C5,2*%
%TO.N,GND*%
X111139800Y-85510000D03*
%TD*%
%TO.P,R1,1*%
%TO.N,/RESET*%
X154280000Y-58060000D03*
%TO.P,R1,2*%
%TO.N,/+5V*%
X161900000Y-58060000D03*
%TD*%
D10*
%TO.P,C4,1*%
%TO.N,GND*%
X108639800Y-78960000D03*
D11*
%TO.P,C4,2*%
%TO.N,Net-(U1-XTAL1{slash}PB6)*%
X111139800Y-78960000D03*
%TD*%
%TO.P,R2,1*%
%TO.N,/+12V*%
X154280000Y-62110000D03*
%TO.P,R2,2*%
%TO.N,Net-(Q2-B)*%
X161900000Y-62110000D03*
%TD*%
D12*
%TO.P,D1,1,K*%
%TO.N,Net-(D1-K)*%
X108400000Y-99460000D03*
D13*
%TO.P,D1,2,A*%
%TO.N,Net-(D1-A)*%
X116020000Y-99460000D03*
%TD*%
D10*
%TO.P,C7,1*%
%TO.N,Net-(U2-C2+)*%
X115279600Y-65860000D03*
D11*
%TO.P,C7,2*%
%TO.N,Net-(U2-C2-)*%
X117779600Y-65860000D03*
%TD*%
D14*
%TO.P,Q1,1,G*%
%TO.N,Net-(Q1-G)*%
X153840000Y-88090000D03*
D15*
%TO.P,Q1,2,D*%
%TO.N,Net-(D3-A)*%
X156380000Y-88090000D03*
%TO.P,Q1,3,S*%
%TO.N,GND*%
X158920000Y-88090000D03*
%TD*%
D10*
%TO.P,C9,1*%
%TO.N,Net-(U2-VS-)*%
X115279600Y-78960000D03*
D11*
%TO.P,C9,2*%
%TO.N,GND*%
X117779600Y-78960000D03*
%TD*%
%TO.P,R3,1*%
%TO.N,/PD2*%
X154280000Y-66160000D03*
%TO.P,R3,2*%
%TO.N,/+5V*%
X161900000Y-66160000D03*
%TD*%
D16*
%TO.P,Y1,1,1*%
%TO.N,Net-(U1-XTAL2{slash}PB7)*%
X110560000Y-109190000D03*
%TO.P,Y1,2,2*%
%TO.N,Net-(U1-XTAL1{slash}PB6)*%
X115440000Y-109190000D03*
%TD*%
D14*
%TO.P,U4,1,VI*%
%TO.N,Net-(D1-K)*%
X153840000Y-94040000D03*
D15*
%TO.P,U4,2,GND*%
%TO.N,GND*%
X156380000Y-94040000D03*
%TO.P,U4,3,VO*%
%TO.N,/+5V*%
X158920000Y-94040000D03*
%TD*%
D11*
%TO.P,R6,1*%
%TO.N,GND*%
X154280000Y-78310000D03*
%TO.P,R6,2*%
%TO.N,Net-(D2-A)*%
X161900000Y-78310000D03*
%TD*%
%TO.P,R5,1*%
%TO.N,GND*%
X154280000Y-74260000D03*
%TO.P,R5,2*%
%TO.N,Net-(Q1-G)*%
X161900000Y-74260000D03*
%TD*%
D17*
%TO.P,D4,1,K*%
%TO.N,/+5V*%
X145590000Y-95370000D03*
D18*
%TO.P,D4,2,A*%
%TO.N,Net-(D3-A)*%
X148130000Y-95370000D03*
%TD*%
D10*
%TO.P,C8,1*%
%TO.N,Net-(U2-VS+)*%
X115279600Y-72410000D03*
D11*
%TO.P,C8,2*%
%TO.N,GND*%
X117779600Y-72410000D03*
%TD*%
D12*
%TO.P,D3,1,K*%
%TO.N,/+5V*%
X108400000Y-103710000D03*
D13*
%TO.P,D3,2,A*%
%TO.N,Net-(D3-A)*%
X116020000Y-103710000D03*
%TD*%
D19*
%TO.P,Q2,1,B*%
%TO.N,Net-(Q2-B)*%
X156460000Y-109500000D03*
D20*
%TO.P,Q2,2,E*%
%TO.N,GND*%
X157730000Y-109500000D03*
%TO.P,Q2,3,C*%
%TO.N,/PD2*%
X159000000Y-109500000D03*
%TD*%
D21*
%TO.P,U1,1,PD3*%
%TO.N,/PD3*%
X144637500Y-101980000D03*
%TO.P,U1,2,PD4*%
%TO.N,unconnected-(U1-PD4-Pad2)*%
X144637500Y-102780000D03*
%TO.P,U1,3,GND*%
%TO.N,GND*%
X144637500Y-103580000D03*
%TO.P,U1,4,VCC*%
%TO.N,/+5V*%
X144637500Y-104380000D03*
%TO.P,U1,5,GND*%
%TO.N,GND*%
X144637500Y-105180000D03*
%TO.P,U1,6,VCC*%
%TO.N,/+5V*%
X144637500Y-105980000D03*
%TO.P,U1,7,XTAL1/PB6*%
%TO.N,Net-(U1-XTAL1{slash}PB6)*%
X144637500Y-106780000D03*
%TO.P,U1,8,XTAL2/PB7*%
%TO.N,Net-(U1-XTAL2{slash}PB7)*%
X144637500Y-107580000D03*
D22*
%TO.P,U1,9,PD5*%
%TO.N,unconnected-(U1-PD5-Pad9)*%
X146000000Y-108942500D03*
%TO.P,U1,10,PD6*%
%TO.N,unconnected-(U1-PD6-Pad10)*%
X146800000Y-108942500D03*
%TO.P,U1,11,PD7*%
%TO.N,unconnected-(U1-PD7-Pad11)*%
X147600000Y-108942500D03*
%TO.P,U1,12,PB0*%
%TO.N,unconnected-(U1-PB0-Pad12)*%
X148400000Y-108942500D03*
%TO.P,U1,13,PB1*%
%TO.N,unconnected-(U1-PB1-Pad13)*%
X149200000Y-108942500D03*
%TO.P,U1,14,PB2*%
%TO.N,unconnected-(U1-PB2-Pad14)*%
X150000000Y-108942500D03*
%TO.P,U1,15,PB3*%
%TO.N,unconnected-(U1-PB3-Pad15)*%
X150800000Y-108942500D03*
%TO.P,U1,16,PB4*%
%TO.N,unconnected-(U1-PB4-Pad16)*%
X151600000Y-108942500D03*
D21*
%TO.P,U1,17,PB5*%
%TO.N,unconnected-(U1-PB5-Pad17)*%
X152962500Y-107580000D03*
%TO.P,U1,18,AVCC*%
%TO.N,/+5V*%
X152962500Y-106780000D03*
%TO.P,U1,19,ADC6*%
%TO.N,unconnected-(U1-ADC6-Pad19)*%
X152962500Y-105980000D03*
%TO.P,U1,20,AREF*%
%TO.N,unconnected-(U1-AREF-Pad20)*%
X152962500Y-105180000D03*
%TO.P,U1,21,GND*%
%TO.N,GND*%
X152962500Y-104380000D03*
%TO.P,U1,22,ADC7*%
%TO.N,unconnected-(U1-ADC7-Pad22)*%
X152962500Y-103580000D03*
%TO.P,U1,23,PC0*%
%TO.N,unconnected-(U1-PC0-Pad23)*%
X152962500Y-102780000D03*
%TO.P,U1,24,PC1*%
%TO.N,unconnected-(U1-PC1-Pad24)*%
X152962500Y-101980000D03*
D22*
%TO.P,U1,25,PC2*%
%TO.N,unconnected-(U1-PC2-Pad25)*%
X151600000Y-100617500D03*
%TO.P,U1,26,PC3*%
%TO.N,unconnected-(U1-PC3-Pad26)*%
X150800000Y-100617500D03*
%TO.P,U1,27,PC4*%
%TO.N,unconnected-(U1-PC4-Pad27)*%
X150000000Y-100617500D03*
%TO.P,U1,28,PC5*%
%TO.N,unconnected-(U1-PC5-Pad28)*%
X149200000Y-100617500D03*
%TO.P,U1,29,~{RESET}/PC6*%
%TO.N,/RESET*%
X148400000Y-100617500D03*
%TO.P,U1,30,PD0*%
%TO.N,/PD0*%
X147600000Y-100617500D03*
%TO.P,U1,31,PD1*%
%TO.N,/PD1*%
X146800000Y-100617500D03*
%TO.P,U1,32,PD2*%
%TO.N,/PD2*%
X146000000Y-100617500D03*
%TD*%
D10*
%TO.P,U2,1,C1+*%
%TO.N,Net-(U2-C1+)*%
X121380000Y-86210000D03*
D11*
%TO.P,U2,2,VS+*%
%TO.N,Net-(U2-VS+)*%
X121380000Y-88750000D03*
%TO.P,U2,3,C1-*%
%TO.N,Net-(U2-C1-)*%
X121380000Y-91290000D03*
%TO.P,U2,4,C2+*%
%TO.N,Net-(U2-C2+)*%
X121380000Y-93830000D03*
%TO.P,U2,5,C2-*%
%TO.N,Net-(U2-C2-)*%
X121380000Y-96370000D03*
%TO.P,U2,6,VS-*%
%TO.N,Net-(U2-VS-)*%
X121380000Y-98910000D03*
%TO.P,U2,7,T2OUT*%
%TO.N,unconnected-(U2-T2OUT-Pad7)*%
X121380000Y-101450000D03*
%TO.P,U2,8,R2IN*%
%TO.N,unconnected-(U2-R2IN-Pad8)*%
X121380000Y-103990000D03*
%TO.P,U2,9,R2OUT*%
%TO.N,unconnected-(U2-R2OUT-Pad9)*%
X129000000Y-103990000D03*
%TO.P,U2,10,T2IN*%
%TO.N,unconnected-(U2-T2IN-Pad10)*%
X129000000Y-101450000D03*
%TO.P,U2,11,T1IN*%
%TO.N,/PD1*%
X129000000Y-98910000D03*
%TO.P,U2,12,R1OUT*%
%TO.N,/PD0*%
X129000000Y-96370000D03*
%TO.P,U2,13,R1IN*%
%TO.N,/R1IN*%
X129000000Y-93830000D03*
%TO.P,U2,14,T1OUT*%
%TO.N,/T1OUT*%
X129000000Y-91290000D03*
%TO.P,U2,15,GND*%
%TO.N,GND*%
X129000000Y-88750000D03*
%TO.P,U2,16,VCC*%
%TO.N,/+5V*%
X129000000Y-86210000D03*
%TD*%
D23*
%TO.P,J3,1,Pin_1*%
%TO.N,/+12V*%
X134600000Y-99305000D03*
D24*
%TO.P,J3,2,Pin_2*%
%TO.N,GND*%
X139600000Y-99305000D03*
%TD*%
D25*
%TO.P,J2,0,PAD*%
%TO.N,unconnected-(J2-PAD-Pad0)*%
X148885000Y-78420000D03*
%TO.N,unconnected-(J2-PAD-Pad0)_1*%
X123885000Y-78420000D03*
D26*
%TO.P,J2,1,1*%
%TO.N,unconnected-(J2-Pad1)*%
X141925000Y-79840000D03*
D11*
%TO.P,J2,2,2*%
%TO.N,/T1OUT*%
X139155000Y-79840000D03*
%TO.P,J2,3,3*%
%TO.N,/R1IN*%
X136385000Y-79840000D03*
%TO.P,J2,4,4*%
%TO.N,unconnected-(J2-Pad4)*%
X133615000Y-79840000D03*
%TO.P,J2,5,5*%
%TO.N,GND*%
X130845000Y-79840000D03*
%TO.P,J2,6,6*%
%TO.N,unconnected-(J2-Pad6)*%
X140540000Y-77000000D03*
%TO.P,J2,7,7*%
%TO.N,unconnected-(J2-Pad7)*%
X137770000Y-77000000D03*
%TO.P,J2,8,8*%
%TO.N,unconnected-(J2-Pad8)*%
X135000000Y-77000000D03*
%TO.P,J2,9,9*%
%TO.N,unconnected-(J2-Pad9)*%
X132230000Y-77000000D03*
%TD*%
D27*
%TO.P,M1,1,+*%
%TO.N,/+5V*%
X156770000Y-101400000D03*
D28*
%TO.P,M1,2,-*%
%TO.N,Net-(D3-A)*%
X156770000Y-103940000D03*
%TD*%
D10*
%TO.P,C2,1*%
%TO.N,/+5V*%
X108639800Y-65860000D03*
D11*
%TO.P,C2,2*%
%TO.N,GND*%
X111139800Y-65860000D03*
%TD*%
D17*
%TO.P,D2,1,K*%
%TO.N,/+5V*%
X145590000Y-87900000D03*
D18*
%TO.P,D2,2,A*%
%TO.N,Net-(D2-A)*%
X148130000Y-87900000D03*
%TD*%
D10*
%TO.P,C1,1*%
%TO.N,Net-(D1-K)*%
X108639800Y-59310000D03*
D11*
%TO.P,C1,2*%
%TO.N,GND*%
X111139800Y-59310000D03*
%TD*%
D23*
%TO.P,J1,1,Pin_1*%
%TO.N,Net-(D1-A)*%
X134600000Y-89190000D03*
D24*
%TO.P,J1,2,Pin_2*%
%TO.N,GND*%
X139600000Y-89190000D03*
%TD*%
D29*
%TO.P,SW1,1,1*%
%TO.N,/RESET*%
X108550000Y-90810000D03*
X115050000Y-90810000D03*
%TO.P,SW1,2,2*%
%TO.N,GND*%
X108550000Y-95310000D03*
X115050000Y-95310000D03*
%TD*%
D11*
%TO.P,R4,1*%
%TO.N,Net-(Q1-G)*%
X154280000Y-70210000D03*
%TO.P,R4,2*%
%TO.N,/PD3*%
X161900000Y-70210000D03*
%TD*%
D10*
%TO.P,C3,1*%
%TO.N,/+5V*%
X108639800Y-72410000D03*
D11*
%TO.P,C3,2*%
%TO.N,GND*%
X111139800Y-72410000D03*
%TD*%
D10*
%TO.P,C10,1*%
%TO.N,GND*%
X115279600Y-85510000D03*
D11*
%TO.P,C10,2*%
%TO.N,/+5V*%
X117779600Y-85510000D03*
%TD*%
D30*
%TO.N,Net-(D1-K)*%
X106387000Y-89387500D03*
%TO.N,/+5V*%
X142876400Y-104555500D03*
%TO.N,Net-(U2-VS+)*%
X113451000Y-83537500D03*
%TO.N,Net-(D1-A)*%
X127394900Y-94387500D03*
%TO.N,Net-(D3-A)*%
X146778600Y-93217500D03*
%TO.N,/PD2*%
X153014600Y-91292100D03*
X143417200Y-91244400D03*
X143261500Y-100638900D03*
%TO.N,/RESET*%
X149055200Y-92806900D03*
%TO.N,/PD3*%
X161217400Y-104012500D03*
%TD*%
D31*
%TO.N,Net-(D1-K)*%
X130561300Y-89878400D02*
X132529000Y-91846100D01*
X153840000Y-94040000D02*
X152585800Y-94040000D01*
X116378400Y-89878400D02*
X130561300Y-89878400D01*
X106387000Y-89387500D02*
X115887500Y-89387500D01*
X115887500Y-89387500D02*
X116378400Y-89878400D01*
X132529000Y-91846100D02*
X150391900Y-91846100D01*
X150391900Y-91846100D02*
X152585800Y-94040000D01*
%TO.N,GND*%
X150950800Y-86778700D02*
X148539500Y-89190000D01*
X130265400Y-87484600D02*
X129000000Y-88750000D01*
X144637500Y-103580000D02*
X143875000Y-103580000D01*
X111139800Y-85510000D02*
X115279600Y-85510000D01*
X109809800Y-80130000D02*
X117779600Y-80130000D01*
X118383600Y-80734000D02*
X117779600Y-80130000D01*
X157665800Y-87541300D02*
X156903200Y-86778700D01*
X158920000Y-88090000D02*
X157665800Y-88090000D01*
X143875000Y-103580000D02*
X139600000Y-99305000D01*
X145205000Y-103580000D02*
X145722900Y-104097900D01*
X129951000Y-80734000D02*
X118383600Y-80734000D01*
X152962500Y-104380000D02*
X145722900Y-104380000D01*
X145722900Y-104097900D02*
X145722900Y-104380000D01*
X153661700Y-104380000D02*
X152962500Y-104380000D01*
X108550000Y-95310000D02*
X115050000Y-95310000D01*
X148539500Y-89190000D02*
X139600000Y-89190000D01*
X137894600Y-87484600D02*
X130265400Y-87484600D01*
X144637500Y-103580000D02*
X145205000Y-103580000D01*
X139600000Y-89190000D02*
X137894600Y-87484600D01*
X157730000Y-109500000D02*
X157730000Y-108448300D01*
X117779600Y-80130000D02*
X117779600Y-78960000D01*
X157730000Y-108448300D02*
X153661700Y-104380000D01*
X130845000Y-79840000D02*
X129951000Y-80734000D01*
X145722900Y-104699800D02*
X145242700Y-105180000D01*
X108639800Y-78960000D02*
X109809800Y-80130000D01*
X157665800Y-88090000D02*
X157665800Y-87541300D01*
X145242700Y-105180000D02*
X144637500Y-105180000D01*
X145722900Y-104380000D02*
X145722900Y-104699800D01*
X156903200Y-86778700D02*
X150950800Y-86778700D01*
%TO.N,/+5V*%
X118191700Y-85097900D02*
X117779600Y-85510000D01*
X129000000Y-86210000D02*
X127887900Y-85097900D01*
X109803700Y-105113700D02*
X143593100Y-105113700D01*
X155682800Y-96571700D02*
X147617800Y-96571700D01*
X148529600Y-105980000D02*
X144637500Y-105980000D01*
X152962500Y-106780000D02*
X149329600Y-106780000D01*
X143593100Y-104555500D02*
X144462000Y-104555500D01*
X143593100Y-105113700D02*
X143593100Y-104555500D01*
X146791700Y-95745600D02*
X146791700Y-95370000D01*
X129000000Y-86210000D02*
X142698300Y-86210000D01*
X145590000Y-95370000D02*
X146791700Y-95370000D01*
X127887900Y-85097900D02*
X118191700Y-85097900D01*
X144007400Y-105980000D02*
X143593100Y-105565700D01*
X108400000Y-103710000D02*
X109803700Y-105113700D01*
X142698300Y-86210000D02*
X144388300Y-87900000D01*
X149329600Y-106780000D02*
X148529600Y-105980000D01*
X143593100Y-105565700D02*
X143593100Y-105113700D01*
X145590000Y-87900000D02*
X144388300Y-87900000D01*
X144637500Y-105980000D02*
X144007400Y-105980000D01*
X157665800Y-94040000D02*
X157665800Y-94588700D01*
X147617800Y-96571700D02*
X146791700Y-95745600D01*
X142876400Y-104555500D02*
X143593100Y-104555500D01*
X157665800Y-94588700D02*
X155682800Y-96571700D01*
X144462000Y-104555500D02*
X144637500Y-104380000D01*
X158920000Y-94040000D02*
X157665800Y-94040000D01*
%TO.N,Net-(U1-XTAL1{slash}PB6)*%
X144637500Y-106780000D02*
X117850000Y-106780000D01*
X117850000Y-106780000D02*
X115440000Y-109190000D01*
%TO.N,Net-(U1-XTAL2{slash}PB7)*%
X111654800Y-110284800D02*
X110560000Y-109190000D01*
X141932700Y-110284800D02*
X111654800Y-110284800D01*
X144637500Y-107580000D02*
X141932700Y-110284800D01*
%TO.N,Net-(U2-VS+)*%
X113451000Y-83537500D02*
X115196300Y-83537500D01*
X115196300Y-83537500D02*
X116601100Y-84942300D01*
X119446400Y-88750000D02*
X121380000Y-88750000D01*
X116601100Y-85904700D02*
X119446400Y-88750000D01*
X116601100Y-84942300D02*
X116601100Y-85904700D01*
%TO.N,Net-(D1-A)*%
X120380000Y-95100000D02*
X116020000Y-99460000D01*
X126682400Y-95100000D02*
X120380000Y-95100000D01*
X127394900Y-94387500D02*
X126682400Y-95100000D01*
%TO.N,Net-(D2-A)*%
X157720000Y-78310000D02*
X148130000Y-87900000D01*
X161900000Y-78310000D02*
X157720000Y-78310000D01*
%TO.N,Net-(D3-A)*%
X116020000Y-103710000D02*
X116020000Y-102707300D01*
X148130000Y-95370000D02*
X154966100Y-95370000D01*
X155125800Y-95210300D02*
X155125800Y-88090000D01*
X116020000Y-102707300D02*
X120945800Y-97781500D01*
X156380000Y-88090000D02*
X155125800Y-88090000D01*
X135094200Y-93217500D02*
X146778600Y-93217500D01*
X154966100Y-95370000D02*
X155125800Y-95210300D01*
X127648100Y-95100000D02*
X133211700Y-95100000D01*
X120945800Y-97781500D02*
X124966600Y-97781500D01*
X124966600Y-97781500D02*
X127648100Y-95100000D01*
X133211700Y-95100000D02*
X135094200Y-93217500D01*
%TO.N,Net-(Q1-G)*%
X154280000Y-70210000D02*
X158330000Y-74260000D01*
X158330000Y-74260000D02*
X161900000Y-74260000D01*
%TO.N,/PD2*%
X152740900Y-91292100D02*
X153014600Y-91292100D01*
X143261500Y-100638900D02*
X143481700Y-100638900D01*
X153014600Y-91292100D02*
X143464900Y-91292100D01*
X143481700Y-100638900D02*
X143261500Y-100638900D01*
X153014600Y-91292100D02*
X152740900Y-91292100D01*
X143261500Y-100638900D02*
X145978600Y-100638900D01*
X143464900Y-91292100D02*
X143417200Y-91244400D01*
X145978600Y-100638900D02*
X146000000Y-100617500D01*
%TO.N,/RESET*%
X144559900Y-94139700D02*
X146712500Y-94139700D01*
X108550000Y-90810000D02*
X115050000Y-90810000D01*
X149055200Y-92904700D02*
X149055200Y-92806900D01*
X148400000Y-100027600D02*
X146329600Y-97957200D01*
X147404900Y-92904700D02*
X148957400Y-92904700D01*
X147404900Y-92904700D02*
X147060300Y-92560100D01*
X145919900Y-97957200D02*
X144361300Y-96398600D01*
X148957400Y-92904700D02*
X149055200Y-92806900D01*
X148400000Y-100617500D02*
X148400000Y-100027600D01*
X147404900Y-93447300D02*
X147404900Y-92904700D01*
X144361300Y-96398600D02*
X144361300Y-94338300D01*
X147060300Y-92560100D02*
X116800100Y-92560100D01*
X149055200Y-92806900D02*
X149055200Y-92904700D01*
X116800100Y-92560100D02*
X115050000Y-90810000D01*
X146712500Y-94139700D02*
X147404900Y-93447300D01*
X146329600Y-97957200D02*
X145919900Y-97957200D01*
X144361300Y-94338300D02*
X144559900Y-94139700D01*
%TO.N,/PD3*%
X160783900Y-103579000D02*
X161217400Y-104012500D01*
X161217400Y-104012500D02*
X159993200Y-102788300D01*
X161217400Y-104012500D02*
X160783900Y-103579000D01*
X159993200Y-102788300D02*
X155595900Y-102788300D01*
X154201600Y-101394000D02*
X152189100Y-101394000D01*
X152189100Y-101394000D02*
X151603100Y-101980000D01*
X155595900Y-102788300D02*
X154201600Y-101394000D01*
X151603100Y-101980000D02*
X144637500Y-101980000D01*
%TO.N,/PD1*%
X130322800Y-97587200D02*
X144347400Y-97587200D01*
X129000000Y-98910000D02*
X130322800Y-97587200D01*
X146800000Y-100039800D02*
X146800000Y-100617500D01*
X144347400Y-97587200D02*
X146800000Y-100039800D01*
%TO.N,/PD0*%
X147086800Y-99503400D02*
X147600000Y-100016600D01*
X143732400Y-96370000D02*
X146865800Y-99503400D01*
X147600000Y-100016600D02*
X147600000Y-100617500D01*
X146865800Y-99503400D02*
X147086800Y-99503400D01*
X129000000Y-96370000D02*
X143732400Y-96370000D01*
%TD*%
M02*
